<?xml version='1.0' encoding='utf-8'?>
<svg xmlns="http://www.w3.org/2000/svg" width="1.2709in" height="1.4099in" clip-rule="evenodd" fill-rule="evenodd" image-rendering="optimizeQuality" shape-rendering="geometricPrecision" text-rendering="geometricPrecision" version="1.1" viewBox="0 0 368.29 408.57"> <defs> <style type="text/css"> .fil0 {fill:#33CC99} </style> </defs> <path class="fil0" d="m-0 0c2.25 24.9 4.48 59.82 18.1 98.28l-14.93-0.48c5.48 33.27 11.12 52.53 27.2 83.22l-18.31-4.01c10.66 37.13 17.59 55.74 42.7 89.13l-17.64 2.2c25.87 38.93 53.69 68.38 93.22 83.36l-10.77 12.83c36.73 9.63 69.54 9.74 101.91 1.61l-3.3 13.75c20.21-0.45 64.9-6.8 84.7-17.06 15.1 3.01 19.75 35.54 28.78 43.78 8.23 7.5 21.06-8.95 30.01-11.28-58.07-91.47-182.17-219.33-267.51-297.02 93.12 50.42 193.56 157.91 251.12 237.15 21.51-65.32 37.32-142.04 3.04-206.56l-7.6 20.24c-28.25-72.66-60.46-86.73-102.08-102.63l1 16.13c-22.28-21.09-60.4-42.28-103.96-46.44l-4.22 15.28c-36.19-16.71-46.19-22.04-80.6-29.07l7.97 17.32c-20.38-4.69-40.21-10.92-58.83-19.74z"/> </svg>