<!-- Generated by @neplex/vectorizer (Using visioncortex VTracer) -->
<svg xmlns="http://www.w3.org/2000/svg" id="winmint-mark" viewBox="0 0 1024 1024" version="1.1" width="1024" height="1024" role="img" aria-labelledby="title desc">
<title id="title">WinMint mark</title>
<desc id="desc">Windows-pane grid with mint-leaf facets. Pure-vector mark.</desc>
<path d="M0 0 C7.259999999999991 0 14.519999999999982 0 22 0 C22.329999999999927 0.990000000000002 22.660000000000082 1.9799999999999969 23 3 C22.339999999999918 3 21.680000000000064 3 21 3 C21 3.6599999999999966 21 4.319999999999993 21 5 C19.350000000000023 5.659999999999997 17.700000000000045 6.319999999999993 16 7 C15.396396484374918 7.357150878906253 14.792792968750064 7.714301757812507 14.1708984375 8.082275390625 C13.325595703124918 8.58235107421875 12.480292968750064 9.082426757812499 11.609375 9.59765625 C10.924626007080064 10.002653503417974 10.924626007080064 10.002653503417974 10.226043701171875 10.41583251953125 C9.750067443847684 10.697311401367188 9.274091186523492 10.978790283203125 8.78369140625 11.268798828125 C8.287503051757767 11.56219146728516 7.791314697265648 11.85558410644532 7.28009033203125 12.157867431640625 C6.775160522460965 12.456396179199217 6.27023071289068 12.754924926757809 5.75 13.0625 C4.997680969238218 13.50727188110352 4.997680969238218 13.50727188110352 4.23016357421875 13.961029052734375 C3.729302368164099 14.257080383300774 3.2284411621094478 14.553131713867188 2.71240234375 14.858154296875 C2.2131423950195313 15.153163299560546 1.7138824462890625 15.448172302246093 1.199493408203125 15.752120971679688 C0.7031137084961756 16.045327301025395 0.20673400878899884 16.33853363037109 -0.3046875 16.640625 C-0.8003421020507631 16.933307647705078 -1.2959967041015261 17.225990295410156 -1.806671142578125 17.527542114257813 C-2.5322370910644167 17.955734939575194 -2.5322370910644167 17.955734939575194 -3.2724609375 18.392578125 C-3.7379333496094205 18.66706787109375 -4.203405761718727 18.9415576171875 -4.6829833984375 19.224365234375 C-5.334906616210901 19.608304443359373 -5.334906616210901 19.608304443359373 -6 20 C-6.732509765625082 20.42990234375 -7.465019531249936 20.859804687500002 -8.2197265625 21.302734375 C-8.851044921874973 21.672050781249993 -9.482363281249945 22.0413671875 -10.1328125 22.421875 C-10.977309570312514 22.91482055664062 -10.977309570312514 22.91482055664062 -11.8388671875 23.417724609375 C-12.345791015625082 23.713000488281253 -12.852714843749936 24.008276367187506 -13.375 24.3125 C-13.861298828124973 24.595529785156245 -14.347597656249945 24.878559570312504 -14.8486328125 25.170166015625 C-15.277568359374982 25.419519042968744 -15.706503906249964 25.668872070312503 -16.1484375 25.92578125 C-16.759453124999936 26.2802734375 -17.370468749999986 26.634765625 -18 27 C-18.723647460937514 27.48243164062501 -18.723647460937514 27.48243164062501 -19.4619140625 27.974609375 C-20.13963867187499 28.426425781250003 -20.817363281249982 28.878242187500007 -21.515625 29.34375 C-22.267309570312477 29.844873046874994 -23.018994140624955 30.345996093750003 -23.79345703125 30.8623046875 C-24.60411621093749 31.402744140625003 -25.414775390624982 31.943183593750007 -26.25 32.5 C-27.471789550781295 33.3145263671875 -27.471789550781295 33.3145263671875 -28.71826171875 34.1455078125 C-29.535688476562427 34.690458984375 -30.353115234375082 35.23541015625 -31.1953125 35.796875 C-32.010322265625064 36.340214843750005 -32.825332031250014 36.88355468750001 -33.6650390625 37.443359375 C-34.43557617187503 37.95705078124999 -35.206113281250055 38.47074218750001 -36 39 C-36.669990234375064 39.446660156250005 -37.339980468750014 39.89332031250001 -38.0302734375 40.353515625 C-38.63645507812498 40.75763671875001 -39.242636718749964 41.1617578125 -39.8671875 41.578125 C-40.42502929687498 41.95001953125001 -40.982871093749964 42.3219140625 -41.5576171875 42.705078125 C-42.07485351562502 43.049902343750006 -42.592089843750045 43.3947265625 -43.125 43.75 C-43.626767578125055 44.08451171875001 -44.128535156249995 44.4190234375 -44.6455078125 44.763671875 C-45.09506835937498 45.063378906249994 -45.544628906249955 45.3630859375 -46.0078125 45.671875 C-46.993945312500045 46.329296875 -46.993945312500045 46.329296875 -48 47 C-51.960000000000036 49.97 -51.960000000000036 49.97 -56 53 C-56.99000000000001 53 -57.98000000000002 53 -59 53 C-59.32999999999993 53.99000000000001 -59.66000000000008 54.97999999999999 -60 56 C-61.98000000000002 56.66 -63.960000000000036 57.31999999999999 -66 58 C-66 58.66 -66 59.31999999999999 -66 60 C-69.63 62.31 -73.25999999999999 64.62 -77 67 C-77.99000000000001 67.99000000000001 -78.98000000000002 68.98000000000002 -80 70 C-81.98000000000002 71.48500000000001 -81.98000000000002 71.48500000000001 -84 73 C-86.97000000000003 74.98000000000002 -89.94000000000005 76.95999999999998 -93 79 C-95.63999999999999 80.98000000000002 -98.27999999999997 82.95999999999998 -101 85 C-101.99000000000001 85.99000000000001 -102.98000000000002 86.98000000000002 -104 88 C-105.48500000000001 88.495 -105.48500000000001 88.495 -107 89 C-107.99000000000001 89.99000000000001 -108.98000000000002 90.98000000000002 -110 92 C-110.66000000000008 92 -111.31999999999994 92 -112 92 C-112 92.66 -112 93.32 -112 94 C-115.63 96.63999999999999 -119.25999999999999 99.28 -123 102 C-123.32999999999993 102.66 -123.66000000000008 103.32 -124 104 C-125.64999999999998 104.99000000000001 -127.29999999999995 105.98000000000002 -129 107 C-130.64999999999998 108.32 -132.29999999999995 109.63999999999999 -134 111 C-128.05999999999995 111 -122.12 111 -116 111 C-112.96812499999999 108.61781250000001 -112.96812499999999 108.61781250000001 -109.875 106.1875 C-108.86324707031247 105.39255126953125 -108.86324707031247 105.39255126953125 -107.8310546875 104.58154296875 C-107.24227539062508 104.1189306640625 -106.65349609374994 103.656318359375 -106.046875 103.1796875 C-105.05204101562504 102.39803222656249 -105.05204101562504 102.39803222656249 -104.037109375 101.6005859375 C-103.36486328125 101.072392578125 -102.69261718749999 100.54419921875001 -102 100 C-101.32775390625 99.471806640625 -100.65550781249999 98.94361328125001 -99.962890625 98.3994140625 C-98.96805664062504 97.61775878906249 -98.96805664062504 97.61775878906249 -97.953125 96.8203125 C-97.31133300781244 96.31604736328126 -96.66954101562499 95.81178222656251 -96.00830078125 95.292236328125 C-95.38681152343747 94.80392333984375 -94.76532226562495 94.3156103515625 -94.125 93.8125 C-93.51253417968746 93.33127685546873 -92.90006835937493 92.85005371093752 -92.26904296875 92.354248046875 C-91.70846191406258 91.91379150390625 -91.14788085937494 91.4733349609375 -90.5703125 91.01953125 C-89.72210937499995 90.3530859375 -88.87390625 89.686640625 -88 89 C-86.01999999999998 87.35 -84.03999999999996 85.69999999999999 -82 84 C-80.35000000000002 83.00999999999999 -78.70000000000005 82.01999999999998 -77 81 C-74.36000000000001 79.01999999999998 -71.72000000000003 77.04000000000002 -69 75 C-68.33999999999992 75 -67.68000000000006 75 -67 75 C-67 74.34 -67 73.68 -67 73 C-66.64083496093758 72.760556640625 -66.28166992187494 72.52111328125 -65.91162109375 72.2744140625 C-65.41227050781254 71.94151367187499 -64.91291992187507 71.60861328125 -64.3984375 71.265625 C-63.85026367187493 70.90017578125 -63.30208984375008 70.5347265625 -62.7373046875 70.158203125 C-62.163994140624936 69.77599609375 -61.590683593749986 69.39378906249999 -61 69 C-60.46536132812503 68.64357421875002 -59.930722656250055 68.28714843749998 -59.3798828125 67.919921875 C-58.854912109374936 67.56994140625 -58.329941406249986 67.21996093749999 -57.7890625 66.859375 C-57.26699218750002 66.511328125 -56.744921875000045 66.16328125000001 -56.20703125 65.8046875 C-55.68496093750002 65.456640625 -55.162890625000045 65.10859375 -54.625 64.75 C-54.079726562500014 64.386484375 -53.53445312500003 64.02296875 -52.97265625 63.6484375 C-52.458320312500064 63.305546875000005 -51.943984375000014 62.96265625000001 -51.4140625 62.609375 C-50.61742187499999 62.07828125 -49.82078124999998 61.54718750000001 -49 61 C-48.67000000000007 60.34 -48.33999999999992 59.68000000000001 -48 59 C-45.690000000000055 57.68000000000001 -43.379999999999995 56.36 -41 55 C-35.059999999999945 51.03999999999999 -29.120000000000005 47.08 -23 43 C-22.339999999999918 43 -21.680000000000064 43 -21 43 C-21 42.34 -21 41.68000000000001 -21 41 C-18.029999999999973 39.349999999999994 -15.059999999999945 37.7 -12 36 C-11.339999999999918 36 -10.680000000000064 36 -10 36 C-10 35.34 -10 34.68000000000001 -10 34 C-5.3799999999999955 31.36 -0.7599999999999909 28.72 4 26 C5.980000000000018 24.349999999999994 7.960000000000036 22.700000000000003 10 21 C11.980000000000018 20.010000000000005 13.960000000000036 19.019999999999996 16 18 C19.960000000000036 15.689999999999998 23.920000000000073 13.379999999999995 28 11 C29.319999999999936 10.340000000000003 30.639999999999986 9.680000000000007 32 9 C32.99000000000001 9 33.98000000000002 9 35 9 C35 8.340000000000003 35 7.680000000000007 35 7 C35.99000000000001 7.329999999999998 36.98000000000002 7.659999999999997 38 8 C36.35000000000002 10.64 34.700000000000045 13.280000000000001 33 16 C32.33999999999992 16 31.680000000000064 16 31 16 C30.670000000000073 17.319999999999993 30.339999999999918 18.64 30 20 C29.339999999999918 20 28.680000000000064 20 28 20 C27.670000000000073 21.319999999999993 27.339999999999918 22.64 27 24 C23.534999999999968 28.950000000000003 23.534999999999968 28.950000000000003 20 34 C19.670000000000073 34.66 19.339999999999918 35.31999999999999 19 36 C18.339999999999918 36 17.680000000000064 36 17 36 C16.670000000000073 37.31999999999999 16.339999999999918 38.64 16 40 C14.680000000000064 42.31 13.360000000000014 44.620000000000005 12 47 C11.339999999999918 47 10.680000000000064 47 10 47 C9.670000000000073 48.31999999999999 9.339999999999918 49.64 9 51 C6.029999999999973 56.61 3.0599999999999454 62.22 0 68 C-1.6499999999999773 71.30000000000001 -3.2999999999999545 74.6 -5 78 C-5.329999999999927 79.32 -5.660000000000082 80.63999999999999 -6 82 C-6.660000000000082 82 -7.319999999999936 82 -8 82 C-7.670000000000073 82.99000000000001 -7.339999999999918 83.98000000000002 -7 85 C-8.649999999999977 88.30000000000001 -10.299999999999955 91.6 -12 95 C-13.649999999999977 99.62 -15.299999999999955 104.24000000000001 -17 109 C-19.639999999999986 119.23000000000002 -22.279999999999973 129.46 -25 140 C-25.660000000000082 144.29 -26.319999999999936 148.58 -27 153 C-27.660000000000082 158.61 -28.319999999999936 164.22 -29 170 C-30.649999999999977 170.66 -32.299999999999955 171.32 -34 172 C-36.309999999999945 171.67 -38.620000000000005 171.34 -41 171 C-45.620000000000005 171 -50.24000000000001 171 -55 171 C-67.87 170.505 -67.87 170.505 -81 170 C-86.27999999999997 169.67 -91.55999999999995 169.34 -97 169 C-98.31999999999994 168.67 -99.63999999999999 168.34 -101 168 C-101 170.31 -101 172.62 -101 175 C-97.03999999999996 175 -93.07999999999993 175 -89 175 C-82.73000000000002 175.33 -76.46000000000004 175.66 -70 176 C-57.460000000000036 176 -44.92000000000007 176 -32 176 C-31.670000000000073 176.66 -31.339999999999918 177.32 -31 178 C-31.99000000000001 182.95 -32.98000000000002 187.9 -34 193 C-35.98000000000002 199.60000000000002 -37.960000000000036 206.2 -40 213 C-41.64999999999998 217.62 -43.299999999999955 222.24 -45 227 C-46.64999999999998 230.96000000000004 -48.299999999999955 234.91999999999996 -50 239 C-50.99000000000001 241.64 -51.98000000000002 244.27999999999997 -53 247 C-53.66000000000008 247 -54.319999999999936 247 -55 247 C-55.32999999999993 248.64999999999998 -55.66000000000008 250.3 -56 252 C-58.309999999999945 256.62 -60.620000000000005 261.24 -63 266 C-63.32999999999993 267.32 -63.66000000000008 268.64 -64 270 C-64.66000000000008 270.33 -65.31999999999994 270.66 -66 271 C-66.66000000000008 272.32 -67.31999999999994 273.64 -68 275 C-72.95000000000005 275 -77.89999999999998 275 -83 275 C-87.95000000000005 274.67 -92.89999999999998 274.34 -98 274 C-98.99000000000001 273.67 -99.98000000000002 273.34 -101 273 C-101 275.97 -101 278.94 -101 282 C-100.00999999999999 281.67 -99.01999999999998 281.34 -98 281 C-91.73000000000002 281.33 -85.46000000000004 281.66 -79 282 C-77.35000000000002 282.33 -75.70000000000005 282.66 -74 283 C-74 283.99 -74 284.98 -74 286 C-74.66000000000008 286 -75.31999999999994 286 -76 286 C-76.32999999999993 287.32 -76.66000000000008 288.64 -77 290 C-77.66000000000008 290.99 -78.31999999999994 291.98 -79 293 C-79.66000000000008 293 -80.31999999999994 293 -81 293 C-81.32999999999993 294.32 -81.66000000000008 295.64 -82 297 C-82.66000000000008 297 -83.31999999999994 297 -84 297 C-84.32999999999993 298.32 -84.66000000000008 299.64 -85 301 C-85.66000000000008 301 -86.31999999999994 301 -87 301 C-87.66000000000008 302.65 -88.31999999999994 304.3 -89 306 C-89.66000000000008 306.99 -90.31999999999994 307.98 -91 309 C-91.66000000000008 309 -92.31999999999994 309 -93 309 C-93.66000000000008 310.32 -94.31999999999994 311.64 -95 313 C-96.48500000000001 314.98 -96.48500000000001 314.98 -98 317 C-98.66000000000008 317 -99.31999999999994 317 -100 317 C-100.32999999999993 354.95 -100.66000000000008 392.9 -101 432 C-206.60000000000002 432 -312.20000000000005 432 -421 432 C-421 326.4 -421 220.79999999999995 -421 112 C-380.74 111.67000000000002 -340.48 111.34 -299 111 C-298.01 109.02000000000001 -298.01 109.02000000000001 -297 107 C-295.35 105.68 -293.70000000000005 104.36000000000001 -292 103 C-290.35 101.35 -288.70000000000005 99.69999999999999 -287 98 C-285.68000000000006 97.34 -284.36 96.68 -283 96 C-282.66999999999996 95.34 -282.34000000000003 94.68 -282 94 C-282 96.97 -282 99.94 -282 103 C-282.65999999999997 105.63999999999999 -283.31999999999994 108.28 -284 111 C-282.35 111 -280.70000000000005 111 -279 111 C-278.66999999999996 107.04000000000002 -278.34000000000003 103.07999999999998 -278 99 C-277.34000000000003 95.69999999999999 -276.68000000000006 92.4 -276 89 C-274.68000000000006 88.67000000000002 -273.36 88.34 -272 88 C-271.66999999999996 87.00999999999999 -271.34000000000003 86.01999999999998 -271 85 C-269.02 83.68 -267.03999999999996 82.36000000000001 -265 81 C-261.37 78.69 -257.74 76.38 -254 74 C-251.02999999999997 72.01999999999998 -248.05999999999995 70.04000000000002 -245 68 C-241.37 66.01999999999998 -237.74 64.04 -234 62 C-228.39 59.36 -222.77999999999997 56.72 -217 54 C-212.38 51.69 -207.76 49.379999999999995 -203 47 C-201.01999999999998 46.236875 -199.03999999999996 45.473749999999995 -197 44.6875 C-196.34918457031245 44.437099609375 -195.698369140625 44.18669921874999 -195.02783203125 43.9287109375 C-194.4849755859375 43.72020507812499 -193.94211914062498 43.51169921875001 -193.3828125 43.296875 C-192.79661132812498 43.07193359375 -192.21041015624996 42.84699218750001 -191.6064453125 42.615234375 C-190.81125488281248 42.310693359374994 -190.81125488281248 42.310693359374994 -190 42 C-189.25492187500004 41.716406250000006 -188.50984374999996 41.4328125 -187.7421875 41.140625 C-187.12601562500004 40.908593749999994 -186.50984374999996 40.6765625 -185.875 40.4375 C-185.274296875 40.21320312500001 -184.67359375 39.98890625 -184.0546875 39.7578125 C-183.03761718750002 39.382695312500005 -183.03761718750002 39.382695312500005 -182 39 C-181.53754882812495 38.830810546875 -181.07509765625002 38.66162109375 -180.5986328125 38.4873046875 C-180.09428710937505 38.30329101562501 -179.58994140624998 38.11927734375 -179.0703125 37.9296875 C-178.56258300781246 37.744787597656256 -178.05485351562504 37.5598876953125 -177.53173828125 37.369384765625 C-177.02626464843752 37.185612792968755 -176.52079101562504 37.00184082031251 -176 36.8125 C-175.25919189453123 36.543609619140625 -175.25919189453123 36.543609619140625 -174.50341796875 36.269287109375 C-174.04854003906246 36.10436767578125 -173.59366210937503 35.939448242187495 -173.125 35.76953125 C-172.42375000000004 35.51558593749999 -171.72249999999997 35.261640625 -171 35 C-169.68000000000006 35.33 -168.36 35.66 -167 36 C-170.29999999999995 48.53999999999999 -173.60000000000002 61.08 -177 74 C-177.92812500000002 79.32124999999999 -177.92812500000002 79.32124999999999 -178.875 84.75 C-179.07432128906248 85.89444580078126 -179.27364257812496 87.03889160156251 -179.47900390625 88.218017578125 C-179.6431982421875 89.16314208984375 -179.80739257812502 90.10826660156249 -179.9765625 91.08203125 C-180.06523590087886 91.59304885864259 -180.15390930175784 92.10406646728515 -180.24526977539063 92.63056945800781 C-180.3335202026367 93.14000595092773 -180.42177062988276 93.64944244384765 -180.5126953125 94.17431640625 C-180.67350585937504 95.10679199218748 -180.83431640624997 96.03926757812502 -181 97 C-181.19094238281252 98.12220947265627 -181.19094238281252 98.12220947265627 -181.3857421875 99.26708984375 C-181.493056640625 99.9046923828125 -181.60037109375003 100.542294921875 -181.7109375 101.19921875 C-181.80520019531252 101.76350585937502 -181.89946289062505 102.32779296875 -181.99658203125 102.9091796875 C-182.0802099609375 103.41352539062501 -182.16383789062502 103.91787109375 -182.25 104.4375 C-182.39953125 105.34371093750002 -182.5490625 106.24992187499998 -182.703125 107.18359375 C-182.85007812499998 108.08271484375001 -182.85007812499998 108.08271484375001 -183 109 C-183.33000000000004 109.99000000000001 -183.65999999999997 110.98000000000002 -184 112 C-182.01999999999998 112 -180.03999999999996 112 -178 112 C-178.33000000000004 111.00999999999999 -178.65999999999997 110.01999999999998 -179 109 C-178.34000000000003 109 -177.68000000000006 109 -177 109 C-177 105.37 -177 101.74000000000001 -177 98 C-176.66999999999996 96.68 -176.34000000000003 95.36000000000001 -176 94 C-175.8642456054688 93.35152099609377 -175.72849121093748 92.70304199218748 -175.588623046875 92.034912109375 C-175.39824462890624 91.12491455078126 -175.20786621093748 90.21491699218751 -175.01171875 89.27734375 C-174.85741645812982 88.53919433593751 -174.85741645812982 88.53919433593751 -174.6999969482422 87.7861328125 C-174.5925868225097 87.27203857421875 -174.48517669677733 86.75794433593751 -174.37451171875 86.228271484375 C-174.20625885009758 85.42255203247072 -174.20625885009758 85.42255203247072 -174.03460693359375 84.60055541992188 C-173.92006164550776 84.05174713134767 -173.80551635742188 83.50293884277343 -173.6875 82.9375 C-173.572954711914 82.38845001220704 -173.45840942382813 81.83940002441406 -173.34039306640625 81.27371215820313 C-173.2256463623047 80.72327239990233 -173.11089965820315 80.17283264160156 -172.99267578125 79.605712890625 C-172.82100891113282 78.78134483337402 -172.82100891113282 78.78134483337402 -172.6458740234375 77.94032287597656 C-172.5319934082031 77.39282882690429 -172.4181127929687 76.84533477783202 -172.30078125 76.28125 C-172.1869006347656 75.73315170288086 -172.0730200195312 75.18505340576172 -171.9556884765625 74.62034606933594 C-171.84478881835935 74.08563186645506 -171.7338891601562 73.55091766357424 -171.61962890625 73 C-171.51330139160154 72.4861474609375 -171.4069738769531 71.972294921875 -171.29742431640625 71.44287109375 C-171.1992742919922 70.96672363281249 -171.10112426757814 70.490576171875 -171 70 C-170.84063964843745 69.21882812500002 -170.681279296875 68.43765625 -170.51708984375 67.6328125 C-170.38125488281253 66.95992187500002 -170.24541992187505 66.28703124999998 -170.10546875 65.59375 C-169.9805908203125 64.9706494140625 -169.855712890625 64.347548828125 -169.72705078125 63.70556640625 C-169.55278564453124 62.830373535156255 -169.55278564453124 62.830373535156255 -169.375 61.9375 C-169.26140136718755 61.36563964843751 -169.14780273437498 60.793779296875 -169.03076171875 60.20458984375 C-168.91877441406245 59.6394970703125 -168.80678710937502 59.074404296875 -168.69140625 58.4921875 C-168.58070800781252 57.93241210937501 -168.47000976562504 57.37263671875 -168.35595703125 56.7958984375 C-168.17975830078126 55.90692871093751 -168.17975830078126 55.90692871093751 -168 55 C-167.86319824218754 54.314541015625 -167.72639648437496 53.62908203124999 -167.58544921875 52.9228515625 C-167.44252441406252 52.208388671875 -167.29959960937504 51.49392578125 -167.15234375 50.7578125 C-166.94182373046874 49.70605834960938 -166.94182373046874 49.70605834960938 -166.72705078125 48.633056640625 C-166.59024902343754 47.949772949218755 -166.45344726562496 47.26648925781251 -166.3125 46.5625 C-166.11503173828123 45.57527954101562 -166.11503173828123 45.57527954101562 -165.91357421875 44.568115234375 C-165.73399169921868 43.67008178710938 -165.73399169921868 43.67008178710938 -165.55078125 42.75390625 C-165.3690234375 41.845117187499994 -165.187265625 40.936328125 -165 40 C-163.515 36.03999999999999 -163.515 36.03999999999999 -162 32 C-160.68000000000006 32 -159.36 32 -158 32 C-158 31.340000000000003 -158 30.680000000000007 -158 30 C-154.70000000000005 29.340000000000003 -151.39999999999998 28.680000000000007 -148 28 C-142.72000000000003 26.349999999999994 -137.44000000000005 24.700000000000003 -132 23 C-128.70000000000005 22.340000000000003 -125.39999999999998 21.680000000000007 -122 21 C-119.69000000000005 20.340000000000003 -117.38 19.680000000000007 -115 19 C-106.42000000000007 17.019999999999996 -97.83999999999992 15.039999999999992 -89 13 C-86.54562499999997 12.566874999999996 -84.09124999999995 12.133749999999992 -81.5625 11.6875 C-80.74346191406244 11.542963867187495 -79.92442382812499 11.398427734375005 -79.08056640625 11.24951171875 C-78.36562011718752 11.123344726562493 -77.65067382812504 10.997177734375 -76.9140625 10.8671875 C-76.10872070312507 10.725068359375001 -75.30337890624992 10.582949218750002 -74.4736328125 10.4365234375 C-73.24918457031254 10.2204443359375 -73.24918457031254 10.2204443359375 -72 10 C-70.77555175781254 9.7839208984375 -70.77555175781254 9.7839208984375 -69.5263671875 9.5634765625 C-68.72102539062507 9.421357421875001 -67.91568359374992 9.279238281250002 -67.0859375 9.1328125 C-66.37099121093752 9.006645507812493 -65.65604492187504 8.880478515625 -64.91943359375 8.75048828125 C-64.10039550781244 8.605952148437495 -63.281357421874986 8.461416015625005 -62.4375 8.3125 C-59.98312499999997 7.879374999999996 -57.528749999999945 7.446250000000006 -55 7 C-45.430000000000064 5.680000000000007 -35.860000000000014 4.359999999999999 -26 3 C-13.625 2.010000000000005 -13.625 2.010000000000005 -1 1 C-0.6700000000000728 0.6700000000000017 -0.33999999999991815 0.3400000000000034 0 0 Z " fill="#2683FD" transform="translate(950,62)"/>
<path d="M0 0 C105.60000000000002 0 211.20000000000005 0 320 0 C320 105.60000000000002 320 211.20000000000005 320 320 C214.39999999999998 320 108.79999999999995 320 0 320 C0 214.39999999999998 0 108.79999999999995 0 0 Z " fill="#2784FF" transform="translate(529,529)"/>
<path d="M0 0 C105.60000000000002 0 211.20000000000005 0 320 0 C320 105.60000000000002 320 211.20000000000005 320 320 C214.39999999999998 320 108.79999999999995 320 0 320 C0 214.39999999999998 0 108.79999999999995 0 0 Z " fill="#2784FF" transform="translate(174,529)"/>
<path d="M0 0 C105.60000000000002 0 211.20000000000005 0 320 0 C320 105.60000000000002 320 211.20000000000005 320 320 C214.39999999999998 320 108.79999999999995 320 0 320 C0 214.39999999999998 0 108.79999999999995 0 0 Z " fill="#2784FF" transform="translate(174,174)"/>
<path d="M0 0 C4.289999999999964 0 8.580000000000041 0 13 0 C53.59000000000003 2.4750000000000227 53.59000000000003 2.4750000000000227 95 5 C96.98000000000002 5.329999999999984 98.96000000000004 5.660000000000025 101 6 C114.20000000000005 6.660000000000025 127.39999999999998 7.319999999999993 141 8 C144.29999999999995 8.329999999999984 147.60000000000002 8.660000000000025 151 9 C157.93000000000006 9 164.86 9 172 9 C178.26999999999998 9.329999999999984 184.53999999999996 9.660000000000025 191 10 C192.64999999999998 10.329999999999984 194.29999999999995 10.660000000000025 196 11 C196 11.990000000000009 196 12.980000000000018 196 14 C195.34000000000003 14 194.68000000000006 14 194 14 C193.66999999999996 15.319999999999993 193.34000000000003 16.639999999999986 193 18 C192.01 19.485000000000014 192.01 19.485000000000014 191 21 C190.34000000000003 21 189.68000000000006 21 189 21 C188.66999999999996 22.319999999999993 188.34000000000003 23.639999999999986 188 25 C187.34000000000003 25 186.68000000000006 25 186 25 C185.66999999999996 26.319999999999993 185.34000000000003 27.639999999999986 185 29 C184.34000000000003 29 183.68000000000006 29 183 29 C182.34000000000003 30.649999999999977 181.68000000000006 32.30000000000001 181 34 C180.34000000000003 34.99000000000001 179.68000000000006 35.98000000000002 179 37 C178.34000000000003 37 177.68000000000006 37 177 37 C176.34000000000003 38.31999999999999 175.68000000000006 39.639999999999986 175 41 C174.01 42.31999999999999 173.01999999999998 43.639999999999986 172 45 C171.34000000000003 45 170.68000000000006 45 170 45 C169.66999999999996 45.65999999999997 169.34000000000003 46.31999999999999 169 47 C167.68000000000006 48.31999999999999 166.36 49.639999999999986 165 51 C164.34000000000003 51 163.68000000000006 51 163 51 C162.34000000000003 52.31999999999999 161.68000000000006 53.639999999999986 161 55 C159.01999999999998 56.31999999999999 157.03999999999996 57.639999999999986 155 59 C153.68000000000006 60.64999999999998 152.36 62.30000000000001 151 64 C144.06999999999994 68.94999999999999 144.06999999999994 68.94999999999999 137 74 C136.34000000000003 74 135.68000000000006 74 135 74 C135 74.65999999999997 135 75.32 135 76 C127.07999999999993 79.96000000000004 127.07999999999993 79.96000000000004 119 84 C117.35000000000002 84.99000000000001 115.70000000000005 85.98000000000002 114 87 C108.38999999999999 88.98000000000002 102.77999999999997 90.95999999999998 97 93 C90.39999999999998 94.64999999999998 83.79999999999995 96.30000000000001 77 98 C70.06999999999994 98.99000000000001 70.06999999999994 98.99000000000001 63 100 C52.110000000000014 100 41.22000000000003 100 30 100 C23.399999999999977 99.34000000000003 16.799999999999955 98.68 10 98 C9.669999999999959 97.67000000000002 9.340000000000032 97.34000000000003 9 97 C2.07000000000005 96.00999999999999 2.07000000000005 96.00999999999999 -5 95 C-14.57000000000005 92.36000000000001 -24.139999999999986 89.72000000000003 -34 87 C-43.40499999999997 83.53499999999997 -43.40499999999997 83.53499999999997 -53 80 C-52.34000000000003 78.01999999999998 -51.67999999999995 76.04000000000002 -51 74 C-49.67999999999995 72.35000000000002 -48.360000000000014 70.69999999999999 -47 69 C-45.67999999999995 66.69 -44.360000000000014 64.38 -43 62 C-39.700000000000045 57.05000000000001 -36.39999999999998 52.10000000000002 -33 47 C-31.350000000000023 44.360000000000014 -29.700000000000045 41.72000000000003 -28 39 C-27.340000000000032 39 -26.67999999999995 39 -26 39 C-25.340000000000032 37.35000000000002 -24.67999999999995 35.69999999999999 -24 34 C-20.534999999999968 28.555000000000007 -20.534999999999968 28.555000000000007 -17 23 C-16.340000000000032 23 -15.67999999999995 23 -15 23 C-14.340000000000032 21.350000000000023 -13.67999999999995 19.69999999999999 -13 18 C-11.67999999999995 16.019999999999982 -10.360000000000014 14.04000000000002 -9 12 C-8.340000000000032 12 -7.67999999999995 12 -7 12 C-6.669999999999959 10.680000000000007 -6.340000000000032 9.360000000000014 -6 8 C-4.019999999999982 5.360000000000014 -2.0399999999999636 2.7200000000000273 0 0 Z " fill="#28CE44" transform="translate(680,334)"/>
<path d="M0 0 C2.9700000000000273 0 5.940000000000055 0 9 0 C20.879999999999995 1.4850000000000136 20.879999999999995 1.4850000000000136 33 3 C36.114374999999995 3.3093749999999886 39.22874999999999 3.6187500000000057 42.4375 3.9375 C43.399704589843736 4.032810058593753 44.36190917968747 4.128120117187507 45.353271484375 4.226318359375 C46.14290283203127 4.305031738281258 46.932534179687536 4.3837451171874875 47.74609375 4.46484375 C48.536853027343795 4.54339599609375 49.32761230468748 4.6219482421875 50.142333984375 4.702880859375 C51.08536376953123 4.800930175781247 52.028393554687455 4.898979492187493 53 5 C55.97000000000003 5.3300000000000125 58.940000000000055 5.659999999999997 62 6 C71.24000000000001 6 80.48000000000002 6 90 6 C96.26999999999998 6.3300000000000125 102.53999999999996 6.659999999999997 109 7 C121.53999999999996 7 134.08000000000004 7 147 7 C147.33000000000004 7.659999999999997 147.65999999999997 8.319999999999993 148 9 C147.01 13.949999999999989 146.01999999999998 18.900000000000006 145 24 C143.01999999999998 30.600000000000023 141.03999999999996 37.19999999999999 139 44 C137.35000000000002 48.620000000000005 135.70000000000005 53.24000000000001 134 58 C131.52499999999998 63.94 131.52499999999998 63.94 129 70 C128.01 72.63999999999999 127.01999999999998 75.27999999999997 126 78 C125.34000000000003 78 124.68000000000006 78 124 78 C123.66999999999996 79.64999999999998 123.34000000000003 81.30000000000001 123 83 C120.69000000000005 87.62 118.38 92.24000000000001 116 97 C115.66999999999996 98.32 115.34000000000003 99.63999999999999 115 101 C114.00999999999999 101.495 114.00999999999999 101.495 113 102 C112.00999999999999 103.98000000000002 112.00999999999999 103.98000000000002 111 106 C106.04999999999995 106 101.10000000000002 106 96 106 C91.04999999999995 105.67000000000002 86.10000000000002 105.34000000000003 81 105 C80.00999999999999 104.67000000000002 79.01999999999998 104.34000000000003 78 104 C77.04186904907226 103.93593460083008 76.08373809814452 103.87186920166016 75.09657287597656 103.80586242675781 C74.45019866943358 103.76261400222779 73.80382446289059 103.71936557769777 73.13786315917969 103.67480659484863 C72.41698013305665 103.62654668807983 71.69609710693362 103.57828678131102 70.953369140625 103.528564453125 C70.19824035644535 103.47797819137571 69.4431115722656 103.42739192962648 68.66510009765625 103.37527275085449 C67.86602737426756 103.32170175552369 67.06695465087887 103.26813076019289 66.24366760253906 103.21293640136719 C65.39834535598754 103.15621953964234 64.55302310943603 103.09950267791749 63.682085037231445 103.04106712341309 C62.80859853744505 102.98239778518678 61.935112037658655 102.92372844696047 61.03515625 102.86328125 C60.15439359664913 102.80403284072878 59.27363094329837 102.7447844314575 58.36617851257324 102.68374061584473 C57.46742563247676 102.62321195602419 56.568672752380394 102.5626832962036 55.64268493652344 102.50032043457031 C54.26153959751127 102.40721761226655 54.26153959751127 102.40721761226655 52.852492332458496 102.31223392486572 C51.91052533149718 102.24867426872254 50.96855833053587 102.18511461257935 49.998046875 102.11962890625 C48.54808240413672 102.02169493198392 48.54808240413672 102.02169493198392 47.06882572174072 101.92178249359131 C46.08632563591004 101.85536587715148 45.103825550079364 101.78894926071166 44.091552734375 101.72052001953125 C43.595966562628746 101.68699575960636 43.10038039088249 101.65347149968147 42.58977645635605 101.6189313530922 C42.09242195427419 101.58527581870555 41.595067452192325 101.55162028431891 41.0826416015625 101.5169448852539 C40.58410675048822 101.48319920539859 40.08557189941405 101.44945352554322 39.571929931640625 101.41468524932861 C38.82476211547851 101.36410355091095 38.82476211547851 101.36410355091095 38.0625 101.3125 C37.567258300781305 101.27898028373716 37.072016601562495 101.24546056747437 36.561767578125 101.21092510223389 C36.06745239257816 101.1774614048004 35.57313720703121 101.14399770736696 35.0638427734375 101.1095199584961 C34.56939489722254 101.07603163480758 34.074947021007574 101.04254331111906 33.565515875816345 101.00804018974304 C32.82333576142787 100.95774468302727 32.82333576142787 100.95774468302727 32.066162109375 100.90643310546875 C31.570372377634044 100.87281024217606 31.074582645893088 100.83918737888337 30.563768982887268 100.80454564094543 C30.06729089617727 100.77084897756578 29.57081280946727 100.73715231418612 29.059289932250977 100.70243453979492 C28.31378155589107 100.65179170846937 28.31378155589107 100.65179170846937 27.5532124042511 100.60012578964233 C27.055476529598195 100.56627861499788 26.557740654945405 100.53243144035338 26.044921875 100.49755859375 C25.5462248682976 100.46360189914702 25.0475278615952 100.42964520454404 24.533718824386597 100.39465951919556 C23.784599121809038 100.34359182596205 23.784599121809038 100.34359182596205 23.02034568786621 100.2914924621582 C22.520325905084633 100.25736857652663 22.020306122303055 100.22324469089506 21.505134224891663 100.18808674812317 C20.754458170533212 100.13679777264593 20.754458170533212 100.13679777264593 19.988616943359375 100.08447265625 C19.237811070084604 100.03311287045477 19.237811070084604 100.03311287045477 18.471837401390076 99.98071551322937 C17.720307020544965 99.92924738764759 17.720307020544965 99.92924738764759 16.953594207763672 99.87673950195313 C16.451988863944962 99.84234771728518 15.950383520126366 99.80795593261718 15.43357801437378 99.77252197265625 C14.930848832130437 99.73801940917969 14.428119649887094 99.70351684570312 13.91015625 99.66796875 C13.405251774787871 99.63329498291017 12.900347299575742 99.59862121582034 12.38014268875122 99.56289672851563 C11.874498953819284 99.52813232421875 11.368855218887347 99.49336791992187 10.847888946533203 99.45755004882813 C10.089692600369517 99.40534478783604 10.089692600369517 99.40534478783604 9.316179156303406 99.35208487510681 C8.811394783258493 99.31726893663404 8.306610410213466 99.28245299816132 7.786529541015625 99.24658203125 C7.283233443498602 99.21179693460465 6.77993734598158 99.1770118379593 6.261389851570129 99.1411726474762 C5.759576600790069 99.1064201235771 5.2577633500098955 99.07166759967805 4.740743637084961 99.03586196899414 C3.990540772676468 98.98379868268967 3.990540772676468 98.98379868268967 3.225182294845581 98.93068361282349 C2.7269317078590802 98.89603360652922 2.2286811208724657 98.861383600235 1.71533203125 98.82568359375 C1.2189779019355456 98.79110030651094 0.7226237726210911 98.75651701927188 0.211228609085083 98.72088575363159 C-0.28244936227793005 98.68640223026273 -0.7761273336410568 98.65191870689392 -1.2847652435302734 98.61639022827148 C-2.2617418098450344 98.54782947540286 -3.2387183761596816 98.47926872253419 -4.24530029296875 98.40863037109375 C-5.206485214233453 98.34071037292483 -6.167670135498042 98.27279037475586 -7.157981872558594 98.20281219482422 C-8.095847854614249 98.13588417053222 -9.033713836669904 98.06895614624023 -10 98 C-10.902658462524414 97.93460273742676 -11.805316925048828 97.86920547485352 -12.735328674316406 97.80182647705078 C-13.613127365112291 97.73753196716308 -14.490926055908176 97.67323745727538 -15.39532470703125 97.60699462890625 C-16.254105634689267 97.54357281684872 -17.1128865623474 97.48015100479125 -17.99769115447998 97.41480731964111 C-19.25977885723114 97.32090103626251 -19.25977885723114 97.32090103626251 -20.54736328125 97.22509765625 C-21.375393648147565 97.16314555168151 -22.20342401504513 97.10119344711302 -23.056546211242676 97.03736400604248 C-23.869859991073554 96.97616532325742 -24.683173770904546 96.91496664047241 -25.521133422851563 96.85191345214844 C-26.319340686798114 96.79151319503785 -27.117547950744665 96.73111293792726 -27.939943313598633 96.66888236999512 C-28.724176082611052 96.60928400039671 -29.508408851623585 96.54968563079831 -30.31640625 96.48828125 C-31.08759229660029 96.42952379226688 -31.858778343200697 96.3707663345337 -32.65333366394043 96.31022834777832 C-33.41169580459598 96.25225011825563 -34.170057945251415 96.19427188873294 -34.95140075683594 96.13453674316406 C-35.69760838508603 96.07727511405943 -36.44381601333623 96.0200134849548 -37.21263599395752 95.96101665496826 C-37.94627715110778 95.90451348304748 -38.67991830825804 95.8480103111267 -39.435791015625 95.789794921875 C-40.15546648979182 95.73414525032047 -40.875141963958754 95.67849557876588 -41.61662578582764 95.62115955352783 C-42.325966730117784 95.56614119529723 -43.03530767440793 95.51112283706664 -43.766143798828125 95.45443725585938 C-44.466624641418434 95.39997310638427 -45.167105484008744 95.34550895690916 -45.88881301879883 95.28939437866211 C-46.58550472259526 95.23514423370364 -47.28219642639158 95.1808940887451 -48 95.125 C-48.701928520202614 95.07034702301024 -49.40385704040523 95.01569404602049 -50.12705612182617 94.95938491821289 C-51.17221830368044 94.877930393219 -51.17221830368044 94.877930393219 -52.238494873046875 94.79483032226563 C-52.9239459896088 94.74132887840273 -53.609397106170604 94.68782743453983 -54.315619468688965 94.63270473480225 C-54.98611104011536 94.58029156684876 -55.65660261154176 94.52787839889527 -56.347412109375 94.473876953125 C-56.996354684829726 94.42305748939515 -57.64529726028445 94.3722380256653 -58.313904762268066 94.31987857818604 C-59.2590313196182 94.24573309421538 -59.2590313196182 94.24573309421538 -60.22325134277344 94.17008972167969 C-60.834321727752695 94.12206899642945 -61.44539211273195 94.07404827117921 -62.07497978210449 94.02457237243652 C-62.668986454009996 93.97779161453246 -63.2629931259155 93.9310108566284 -63.875 93.8828125 C-64.45779283523564 93.83678201675417 -65.04058567047116 93.79075153350828 -65.64103889465332 93.74332618713379 C-66.2007633018494 93.69902662277224 -66.76048770904538 93.65472705841063 -67.33717346191406 93.60908508300781 C-67.86326485633845 93.5673828411102 -68.38935625076294 93.52568059921265 -68.93138980865479 93.48271465301514 C-69.67304716587068 93.4238368177414 -69.67304716587068 93.4238368177414 -70.4296875 93.36376953125 C-71.31897949218751 93.29304229736329 -72.20827148437502 93.22231506347657 -73.12451171875 93.14944458007813 C-73.74342285156251 93.10012786865235 -74.36233398437503 93.05081115722658 -75 93 C-77.30999999999995 92.67000000000002 -79.62 92.34000000000003 -82 92 C-81.66999999999996 91.00999999999999 -81.34000000000003 90.01999999999998 -81 89 C-80.00999999999999 88.505 -80.00999999999999 88.505 -79 88 C-78.00999999999999 86.35000000000002 -77.01999999999998 84.69999999999999 -76 83 C-72.37 79.04000000000002 -68.74000000000001 75.07999999999998 -65 71 C-62.02999999999997 67.37 -59.059999999999945 63.74000000000001 -56 60 C-55.34000000000003 60 -54.67999999999995 60 -54 60 C-53.34000000000003 58.68000000000001 -52.67999999999995 57.360000000000014 -52 56 C-47.54499999999996 51.05000000000001 -47.54499999999996 51.05000000000001 -43 46 C-41.01999999999998 43.52499999999998 -41.01999999999998 43.52499999999998 -39 41 C-38.34000000000003 41 -37.67999999999995 41 -37 41 C-36.34000000000003 39.68000000000001 -35.67999999999995 38.360000000000014 -35 37 C-32.690000000000055 34.360000000000014 -30.379999999999995 31.720000000000027 -28 29 C-27.340000000000032 29 -26.67999999999995 29 -26 29 C-25.504999999999995 27.514999999999986 -25.504999999999995 27.514999999999986 -25 26 C-24.340000000000032 26 -23.67999999999995 26 -23 26 C-22.340000000000032 24.680000000000007 -21.67999999999995 23.360000000000014 -21 22 C-19.350000000000023 20.680000000000007 -17.700000000000045 19.360000000000014 -16 18 C-15.340000000000032 16.680000000000007 -14.680000000000064 15.360000000000014 -14 14 C-13.340000000000032 14 -12.680000000000064 14 -12 14 C-11.340000000000032 12.680000000000007 -10.680000000000064 11.360000000000014 -10 10 C-9.340000000000032 10 -8.680000000000064 10 -8 10 C-7.340000000000032 8.680000000000007 -6.680000000000064 7.360000000000014 -6 6 C-5.009999999999991 5.009999999999991 -4.019999999999982 4.02000000000001 -3 3 C-2.340000000000032 3 -1.6800000000000637 3 -1 3 C-0.6699999999999591 2.009999999999991 -0.34000000000003183 1.0200000000000102 0 0 Z " fill="#50D530" transform="translate(771,231)"/>
<path d="M0 0 C1.3199999999999363 0.3299999999999983 2.6399999999999864 0.6599999999999966 4 1 C0.7000000000000455 13.540000000000006 -2.6000000000000227 26.08 -6 39 C-6.618749999999977 42.547500000000014 -7.2374999999999545 46.095 -7.875 49.75 C-8.074321289062482 50.894445800781256 -8.273642578124964 52.03889160156251 -8.47900390625 53.218017578125 C-8.643198242187509 54.163142089843745 -8.807392578125018 55.10826660156249 -8.9765625 56.08203125 C-9.109572601318405 56.848557662963856 -9.109572601318405 56.848557662963856 -9.245269775390625 57.63056945800781 C-9.377645416259725 58.39472419738769 -9.377645416259725 58.39472419738769 -9.5126953125 59.17431640625 C-9.673505859375041 60.10679199218751 -9.834316406249968 61.03926757812499 -10 62 C-10.127294921874977 62.7481396484375 -10.254589843749955 63.496279296875 -10.3857421875 64.26708984375 C-10.493056640625014 64.9046923828125 -10.600371093750027 65.542294921875 -10.7109375 66.19921875 C-10.799077148437505 66.72604248046875 -10.887216796875009 67.2528662109375 -10.97802734375 67.795654296875 C-11.067778320312527 68.33746337890625 -11.157529296875055 68.8792724609375 -11.25 69.4375 C-11.497499999999945 70.94312500000001 -11.745000000000005 72.44875000000002 -12 74 C-13.319999999999936 79.61000000000001 -14.639999999999986 85.22 -16 91 C-16.659999999999968 101.23000000000002 -17.319999999999936 111.46000000000001 -18 122 C-22.950000000000045 126.29000000000002 -27.899999999999977 130.58 -33 135 C-34.381875000000036 136.381875 -35.76374999999996 137.76375 -37.1875 139.1875 C-37.637221679687514 139.6372216796875 -38.08694335937503 140.086943359375 -38.55029296875 140.55029296875 C-38.92299316406252 140.9229931640625 -39.295693359375036 141.295693359375 -39.6796875 141.6796875 C-40.08155273437501 142.081552734375 -40.48341796875002 142.48341796875 -40.8974609375 142.8974609375 C-41.44321777343748 143.4432177734375 -41.44321777343748 143.4432177734375 -42 144 C-42.518203125000014 144.518203125 -43.03640625000003 145.03640625 -43.5703125 145.5703125 C-43.98023437500001 145.980234375 -44.39015625000002 146.39015625 -44.8125 146.8125 C-45.36937499999999 147.369375 -45.36937499999999 147.369375 -45.9375 147.9375 C-46.288125000000036 148.288125 -46.63874999999996 148.63875 -47 149 C-47.39187500000003 149.391875 -47.783750000000055 149.78375 -48.1875 150.1875 C-48.74437499999999 150.744375 -48.74437499999999 150.744375 -49.3125 151.3125 C-49.86937499999999 151.869375 -50.42624999999998 152.42625 -51 153 C-52.485000000000014 155.47500000000002 -52.485000000000014 155.47500000000002 -54 158 C-55.98000000000002 158.99 -55.98000000000002 158.99 -58 160 C-60.309999999999945 162.64 -62.620000000000005 165.27999999999997 -65 168 C-66.64999999999998 169.98000000000002 -68.29999999999995 171.96000000000004 -70 174 C-72.63999999999999 177.3 -75.27999999999997 180.60000000000002 -78 184 C-80.97000000000003 187.3 -83.94000000000005 190.60000000000002 -87 194 C-89.30999999999995 196.97000000000003 -91.62 199.94 -94 203 C-96.97000000000003 207.45499999999998 -96.97000000000003 207.45499999999998 -100 212 C-100.65999999999997 212 -101.32000000000005 212 -102 212 C-102 212.65999999999997 -102 213.32 -102 214 C-102.65999999999997 214 -103.32000000000005 214 -104 214 C-104.33000000000004 213.34000000000003 -104.65999999999997 212.68 -105 212 C-106.32000000000005 195.82999999999998 -107.63999999999999 179.65999999999997 -109 163 C-109 142.21 -109 121.41999999999999 -109 100 C-108.66999999999996 90.75999999999999 -108.34000000000003 81.51999999999998 -108 72 C-107.00999999999999 66.06 -107.00999999999999 66.06 -106 60 C-105.505 57.03 -105.505 57.03 -105 54 C-103.01999999999998 53.504999999999995 -103.01999999999998 53.504999999999995 -101 53 C-100.66999999999996 52.00999999999999 -100.34000000000003 51.02000000000001 -100 50 C-98.01999999999998 48.68000000000001 -96.03999999999996 47.360000000000014 -94 46 C-90.37 43.69 -86.74000000000001 41.379999999999995 -83 39 C-80.02999999999997 37.02000000000001 -77.05999999999995 35.03999999999999 -74 33 C-68.55499999999995 30.03 -68.55499999999995 30.03 -63 27 C-57.389999999999986 24.36 -51.77999999999997 21.72 -46 19 C-41.379999999999995 16.689999999999998 -36.75999999999999 14.379999999999995 -32 12 C-29.029999999999973 10.855312499999997 -29.029999999999973 10.855312499999997 -26 9.6875 C-25.349184570312445 9.437099609374997 -24.698369140625005 9.186699218749993 -24.02783203125 8.9287109375 C-23.48497558593749 8.720205078125005 -22.942119140624982 8.511699218749996 -22.3828125 8.296875 C-21.796611328124982 8.071933593750003 -21.210410156249964 7.846992187500007 -20.6064453125 7.615234375 C-20.076318359375023 7.412207031250006 -19.546191406250045 7.209179687499997 -19 7 C-18.254921875000036 6.716406250000006 -17.50984374999996 6.432812499999997 -16.7421875 6.140625 C-16.126015625000036 5.908593749999994 -15.509843749999959 5.676562500000003 -14.875 5.4375 C-14.274296875000005 5.213203125000007 -13.673593750000009 4.988906249999999 -13.0546875 4.7578125 C-12.376640624999936 4.507734374999998 -11.698593749999986 4.257656249999997 -11 4 C-10.306323242187545 3.7462158203125 -10.306323242187545 3.7462158203125 -9.5986328125 3.4873046875 C-8.842114257812455 3.211284179687496 -8.842114257812455 3.211284179687496 -8.0703125 2.9296875 C-7.562583007812464 2.7447875976562557 -7.054853515625041 2.559887695312497 -6.53173828125 2.369384765625 C-6.026264648437518 2.1856127929687545 -5.520791015625036 2.001840820312495 -5 1.8125 C-4.506127929687523 1.63323974609375 -4.0122558593750455 1.4539794921875 -3.50341796875 1.269287109375 C-3.048540039062459 1.1043676757812477 -2.593662109375032 0.9394482421874955 -2.125 0.76953125 C-1.0731250000000045 0.3886132812500023 -1.0731250000000045 0.3886132812500023 0 0 Z " fill="#58D82F" transform="translate(779,97)"/>
<path d="M0 0 C0.9900000000000091 0.3299999999999983 1.9800000000000182 0.6599999999999966 3 1 C0.5249999999999773 4.959999999999994 0.5249999999999773 4.959999999999994 -2 9 C-2.659999999999968 9 -3.3199999999999363 9 -4 9 C-4.330000000000041 10.319999999999993 -4.659999999999968 11.64 -5 13 C-5.659999999999968 13 -6.319999999999936 13 -7 13 C-7.330000000000041 14.319999999999993 -7.659999999999968 15.64 -8 17 C-11.465000000000032 21.950000000000003 -11.465000000000032 21.950000000000003 -15 27 C-15.330000000000041 27.659999999999997 -15.659999999999968 28.319999999999993 -16 29 C-16.659999999999968 29 -17.319999999999936 29 -18 29 C-18.33000000000004 30.319999999999993 -18.659999999999968 31.64 -19 33 C-20.319999999999936 35.31 -21.639999999999986 37.620000000000005 -23 40 C-23.659999999999968 40 -24.319999999999936 40 -25 40 C-25.33000000000004 41.31999999999999 -25.659999999999968 42.64 -26 44 C-28.970000000000027 49.61 -31.940000000000055 55.22 -35 61 C-37.47500000000002 65.94999999999999 -37.47500000000002 65.94999999999999 -40 71 C-40.33000000000004 72.32 -40.65999999999997 73.63999999999999 -41 75 C-41.65999999999997 75 -42.319999999999936 75 -43 75 C-42.66999999999996 75.99000000000001 -42.34000000000003 76.98000000000002 -42 78 C-44.47500000000002 82.94999999999999 -44.47500000000002 82.94999999999999 -47 88 C-49.47500000000002 94.93 -49.47500000000002 94.93 -52 102 C-54.639999999999986 112.23000000000002 -57.27999999999997 122.46000000000001 -60 133 C-60.99000000000001 139.435 -60.99000000000001 139.435 -62 146 C-62.65999999999997 151.61 -63.319999999999936 157.22 -64 163 C-66.47500000000002 163.99 -66.47500000000002 163.99 -69 165 C-71.30999999999995 164.67 -73.62 164.34 -76 164 C-80.62 164 -85.24000000000001 164 -90 164 C-98.58000000000004 163.67 -107.15999999999997 163.34 -116 163 C-121.27999999999997 162.67 -126.55999999999995 162.34 -132 162 C-137.94000000000005 161.01 -137.94000000000005 161.01 -144 160 C-162.80999999999995 158.35 -181.62 156.7 -201 155 C-202.32000000000005 154.34 -203.64 153.68 -205 153 C-199.05999999999995 147.555 -199.05999999999995 147.555 -193 142 C-190.36 139.69 -187.72000000000003 137.38 -185 135 C-181.37 131.7 -177.74 128.4 -174 125 C-170.37 122.03 -166.74 119.06 -163 116 C-159.70000000000005 113.03 -156.39999999999998 110.06 -153 107 C-152.34000000000003 106.34 -151.67999999999995 105.68 -151 105 C-149.35000000000002 103.35 -147.70000000000005 101.69999999999999 -146 100 C-140.39 95.70999999999998 -134.77999999999997 91.42000000000002 -129 87 C-125.03999999999996 83.69999999999999 -121.08000000000004 80.4 -117 77 C-115.35000000000002 76.00999999999999 -113.70000000000005 75.01999999999998 -112 74 C-109.36000000000001 72.01999999999998 -106.72000000000003 70.04000000000002 -104 68 C-103.34000000000003 68 -102.68000000000006 68 -102 68 C-102 67.34 -102 66.68 -102 66 C-101.64083496093747 65.760556640625 -101.28166992187494 65.52111328125 -100.91162109375 65.2744140625 C-100.41227050781254 64.94151367187499 -99.91291992187496 64.60861328125 -99.3984375 64.265625 C-98.85026367187504 63.90017578125 -98.30208984374997 63.5347265625 -97.7373046875 63.158203125 C-97.16399414062494 62.775996093749995 -96.59068359374999 62.39378906249999 -96 62 C-95.46536132812503 61.64357421874999 -94.93072265625005 61.28714843750001 -94.3798828125 60.919921875 C-93.85491210937494 60.569941406249995 -93.32994140624999 60.21996093749999 -92.7890625 59.859375 C-92.26699218750002 59.511328125000006 -91.74492187500005 59.16328125000001 -91.20703125 58.8046875 C-90.68496093750002 58.456640625000006 -90.16289062500005 58.10859375 -89.625 57.75 C-89.07972656250001 57.38648437500001 -88.53445312500003 57.02296874999999 -87.97265625 56.6484375 C-87.45832031250006 56.305546875000005 -86.94398437500001 55.96265625000001 -86.4140625 55.609375 C-85.61742187499999 55.07828125 -84.82078124999998 54.54718750000001 -84 54 C-83.505 53.010000000000005 -83.505 53.010000000000005 -83 52 C-80.69000000000005 50.68000000000001 -78.38 49.36 -76 48 C-70.05999999999995 44.03999999999999 -64.12 40.08 -58 36 C-57.34000000000003 36 -56.680000000000064 36 -56 36 C-56 35.34 -56 34.68000000000001 -56 34 C-51.54500000000007 31.525000000000006 -51.54500000000007 31.525000000000006 -47 29 C-46.34000000000003 29 -45.680000000000064 29 -45 29 C-45 28.340000000000003 -45 27.680000000000007 -45 27 C-40.379999999999995 24.36 -35.75999999999999 21.72 -31 19 C-29.019999999999982 17.349999999999994 -27.039999999999964 15.700000000000003 -25 14 C-23.019999999999982 13.010000000000005 -21.039999999999964 12.019999999999996 -19 11 C-15.039999999999964 8.689999999999998 -11.080000000000041 6.3799999999999955 -7 4 C-5.680000000000064 3.3400000000000034 -4.360000000000014 2.680000000000007 -3 2 C-2.009999999999991 2 -1.0199999999999818 2 0 2 C0 1.3400000000000034 0 0.6800000000000068 0 0 Z " fill="#9EF128" transform="translate(985,69)"/>
<path d="M0 0 C7.259999999999991 0 14.519999999999982 0 22 0 C22.33000000000004 0.990000000000002 22.659999999999968 1.9799999999999969 23 3 C22.340000000000032 3 21.680000000000064 3 21 3 C21 3.6599999999999966 21 4.319999999999993 21 5 C18.524999999999977 5.989999999999995 18.524999999999977 5.989999999999995 16 7 C15.396396484375032 7.357150878906253 14.792792968750064 7.714301757812507 14.1708984375 8.082275390625 C12.902944335937491 8.832388916015617 12.902944335937491 8.832388916015617 11.609375 9.59765625 C11.15287567138671 9.867654418945307 10.69637634277342 10.137652587890628 10.226043701171875 10.41583251953125 C9.512079315185474 10.838050842285156 9.512079315185474 10.838050842285156 8.78369140625 11.268798828125 C8.287503051757767 11.56219146728516 7.791314697265648 11.85558410644532 7.28009033203125 12.157867431640625 C6.5226956176757085 12.60566055297852 6.5226956176757085 12.60566055297852 5.75 13.0625 C4.997680969238218 13.50727188110352 4.997680969238218 13.50727188110352 4.23016357421875 13.961029052734375 C3.729302368164099 14.257080383300774 3.228441162109334 14.553131713867188 2.71240234375 14.858154296875 C2.2131423950195313 15.153163299560546 1.7138824462890625 15.448172302246093 1.199493408203125 15.752120971679688 C0.4549238586425872 16.19193046569825 0.4549238586425872 16.19193046569825 -0.3046875 16.640625 C-0.8003421020507631 16.933307647705078 -1.2959967041015261 17.225990295410156 -1.806671142578125 17.527542114257813 C-2.2903817749023574 17.81300399780274 -2.77409240722659 18.098465881347664 -3.2724609375 18.392578125 C-3.7379333496094205 18.66706787109375 -4.203405761718727 18.9415576171875 -4.6829833984375 19.224365234375 C-5.117598876953139 19.480324707031258 -5.552214355468777 19.7362841796875 -6 20 C-6.732509765624968 20.42990234375 -7.465019531249936 20.859804687500002 -8.2197265625 21.302734375 C-9.166704101562573 21.856708984375004 -9.166704101562573 21.856708984375004 -10.1328125 22.421875 C-10.695810546875009 22.75050537109375 -11.258808593750018 23.079135742187503 -11.8388671875 23.417724609375 C-12.345791015624968 23.713000488281253 -12.852714843749936 24.008276367187506 -13.375 24.3125 C-13.861298828124973 24.595529785156245 -14.347597656249945 24.878559570312504 -14.8486328125 25.170166015625 C-15.277568359374982 25.419519042968744 -15.706503906249964 25.668872070312503 -16.1484375 25.92578125 C-16.759453124999936 26.2802734375 -17.370468749999986 26.634765625 -18 27 C-18.48243164062501 27.321621093749997 -18.964863281250018 27.643242187499993 -19.4619140625 27.974609375 C-20.13963867187499 28.426425781250003 -20.817363281249982 28.878242187500007 -21.515625 29.34375 C-22.643151855468773 30.095434570312506 -22.643151855468773 30.095434570312506 -23.79345703125 30.8623046875 C-24.60411621093749 31.402744140625003 -25.414775390624982 31.943183593750007 -26.25 32.5 C-27.064526367187455 33.043017578125 -27.879052734375023 33.586035156250006 -28.71826171875 34.1455078125 C-29.53568847656254 34.690458984375 -30.353115234374968 35.23541015625 -31.1953125 35.796875 C-32.010322265625064 36.340214843750005 -32.825332031250014 36.88355468750001 -33.6650390625 37.443359375 C-34.43557617187503 37.95705078124999 -35.206113281250055 38.47074218750001 -36 39 C-36.669990234375064 39.446660156250005 -37.339980468750014 39.89332031250001 -38.0302734375 40.353515625 C-38.63645507812498 40.75763671875001 -39.242636718749964 41.1617578125 -39.8671875 41.578125 C-40.42502929687498 41.95001953125001 -40.982871093749964 42.3219140625 -41.5576171875 42.705078125 C-42.07485351562502 43.049902343750006 -42.592089843750045 43.3947265625 -43.125 43.75 C-43.626767578125055 44.08451171875001 -44.128535156249995 44.4190234375 -44.6455078125 44.763671875 C-45.31984863281252 45.213232421875006 -45.31984863281252 45.213232421875006 -46.0078125 45.671875 C-46.665234374999955 46.11015625 -47.32265625000002 46.548437500000006 -48 47 C-50.639999999999986 48.97999999999999 -53.27999999999997 50.96000000000001 -56 53 C-56.99000000000001 53 -57.98000000000002 53 -59 53 C-59.33000000000004 53.99000000000001 -59.65999999999997 54.97999999999999 -60 56 C-61.98000000000002 56.66 -63.960000000000036 57.31999999999999 -66 58 C-66 58.66 -66 59.31999999999999 -66 60 C-69.63 62.31 -73.25999999999999 64.62 -77 67 C-77.99000000000001 67.99000000000001 -78.98000000000002 68.98000000000002 -80 70 C-81.98000000000002 71.48500000000001 -81.98000000000002 71.48500000000001 -84 73 C-86.97000000000003 74.98000000000002 -89.94000000000005 76.95999999999998 -93 79 C-95.63999999999999 80.98000000000002 -98.27999999999997 82.95999999999998 -101 85 C-101.99000000000001 85.99000000000001 -102.98000000000002 86.98000000000002 -104 88 C-105.48500000000001 88.495 -105.48500000000001 88.495 -107 89 C-107.99000000000001 89.99000000000001 -108.98000000000002 90.98000000000002 -110 92 C-110.65999999999997 92 -111.31999999999994 92 -112 92 C-112 92.66 -112 93.32 -112 94 C-115.63 96.63999999999999 -119.25999999999999 99.28 -123 102 C-123.33000000000004 102.66 -123.65999999999997 103.32 -124 104 C-125.64999999999998 104.99000000000001 -127.29999999999995 105.98000000000002 -129 107 C-130.32000000000005 107.99000000000001 -131.64 108.98000000000002 -133 110 C-135.30999999999995 111.32 -137.62 112.63999999999999 -140 114 C-143.96000000000004 117.63 -147.91999999999996 121.25999999999999 -152 125 C-154.64 127.31 -157.27999999999997 129.62 -160 132 C-160.65999999999997 132 -161.32000000000005 132 -162 132 C-162.33000000000004 132.99 -162.65999999999997 133.98 -163 135 C-163.46148437500005 135.4008984375 -163.92296875 135.801796875 -164.3984375 136.21484375 C-165.3768359375 137.06755859375 -165.3768359375 137.06755859375 -166.375 137.9375 C-167.09429687500005 138.5665625 -167.81359375 139.195625 -168.5546875 139.84375 C-169.14201660156255 140.36001953125 -169.14201660156255 140.36001953125 -169.7412109375 140.88671875 C-170.156611328125 141.2541015625 -170.57201171875 141.621484375 -171 142 C-171.44891601562495 142.4008984375 -171.89783203125 142.801796875 -172.3603515625 143.21484375 C-172.82151367187498 143.6286328125 -173.28267578124996 144.042421875 -173.7578125 144.46875 C-174.44157958984374 145.08375366210936 -174.44157958984374 145.08375366210936 -175.13916015625 145.711181640625 C-175.58823730468748 146.11586669921874 -176.03731445312496 146.5205517578125 -176.5 146.9375 C-177.16781494140628 147.53969360351562 -177.16781494140628 147.53969360351562 -177.84912109375 148.154052734375 C-178.25984863281246 148.52473876953124 -178.67057617187504 148.8954248046875 -179.09375 149.27734375 C-180.03734375 150.13005859375 -180.03734375 150.13005859375 -181 151 C-181.33000000000004 151 -181.65999999999997 151 -182 151 C-181.66999999999996 147.04 -181.34000000000003 143.08 -181 139 C-180.01 131.74 -179.01999999999998 124.48000000000002 -178 117 C-178.33000000000004 114.36000000000001 -178.65999999999997 111.72 -179 109 C-178.34000000000003 109 -177.67999999999995 109 -177 109 C-177 105.37 -177 101.74000000000001 -177 98 C-176.66999999999996 96.68 -176.34000000000003 95.36000000000001 -176 94 C-175.8642456054688 93.35152099609377 -175.72849121093748 92.70304199218748 -175.588623046875 92.034912109375 C-175.39824462890624 91.12491455078126 -175.20786621093748 90.21491699218751 -175.01171875 89.27734375 C-174.90885055541992 88.785244140625 -174.80598236083983 88.29314453125 -174.6999969482422 87.7861328125 C-174.59258682250982 87.27203857421875 -174.48517669677733 86.75794433593751 -174.37451171875 86.228271484375 C-174.26234313964846 85.69112518310547 -174.15017456054693 85.15397888183594 -174.03460693359375 84.60055541992188 C-173.92006164550776 84.05174713134767 -173.80551635742188 83.50293884277343 -173.6875 82.9375 C-173.572954711914 82.38845001220704 -173.45840942382813 81.83940002441406 -173.34039306640625 81.27371215820313 C-173.16827301025387 80.44805252075196 -173.16827301025387 80.44805252075196 -172.99267578125 79.605712890625 C-172.87823120117184 79.056134185791 -172.7637866210938 78.50655548095705 -172.6458740234375 77.94032287597656 C-172.5319934082031 77.39282882690429 -172.4181127929687 76.84533477783202 -172.30078125 76.28125 C-172.1299603271484 75.4591025543213 -172.1299603271484 75.4591025543213 -171.9556884765625 74.62034606933594 C-171.84478881835935 74.08563186645506 -171.7338891601562 73.55091766357424 -171.61962890625 73 C-171.46013763427732 72.22922119140625 -171.46013763427732 72.22922119140625 -171.29742431640625 71.44287109375 C-171.15019927978517 70.72864990234376 -171.15019927978517 70.72864990234376 -171 70 C-170.84063964843745 69.21882812500002 -170.681279296875 68.43765625 -170.51708984375 67.6328125 C-170.38125488281253 66.95992187500002 -170.24541992187505 66.28703124999998 -170.10546875 65.59375 C-169.9805908203125 64.9706494140625 -169.855712890625 64.347548828125 -169.72705078125 63.70556640625 C-169.61087402343753 63.1221044921875 -169.49469726562495 62.53864257812501 -169.375 61.9375 C-169.26140136718755 61.36563964843751 -169.14780273437498 60.793779296875 -169.03076171875 60.20458984375 C-168.91877441406245 59.6394970703125 -168.80678710937502 59.074404296875 -168.69140625 58.4921875 C-168.58070800781252 57.93241210937501 -168.47000976562504 57.37263671875 -168.35595703125 56.7958984375 C-168.23849121093747 56.203251953125005 -168.12102539062505 55.61060546875001 -168 55 C-167.86319824218754 54.314541015625 -167.72639648437496 53.62908203124999 -167.58544921875 52.9228515625 C-167.44252441406252 52.208388671875 -167.29959960937504 51.49392578125 -167.15234375 50.7578125 C-167.01199707031253 50.05664306640625 -166.87165039062495 49.355473632812505 -166.72705078125 48.633056640625 C-166.59024902343754 47.949772949218755 -166.45344726562496 47.26648925781251 -166.3125 46.5625 C-166.18085449218745 45.904353027343745 -166.049208984375 45.24620605468749 -165.91357421875 44.568115234375 C-165.79385253906253 43.969426269531255 -165.67413085937505 43.37073730468751 -165.55078125 42.75390625 C-165.3690234375 41.845117187499994 -165.187265625 40.936328125 -165 40 C-164.01 37.36 -163.01999999999998 34.72 -162 32 C-160.67999999999995 32 -159.36 32 -158 32 C-158 31.340000000000003 -158 30.680000000000007 -158 30 C-154.70000000000005 29.340000000000003 -151.39999999999998 28.680000000000007 -148 28 C-142.72000000000003 26.349999999999994 -137.44000000000005 24.700000000000003 -132 23 C-128.70000000000005 22.340000000000003 -125.39999999999998 21.680000000000007 -122 21 C-119.69000000000005 20.340000000000003 -117.38 19.680000000000007 -115 19 C-106.41999999999996 17.019999999999996 -97.84000000000003 15.039999999999992 -89 13 C-85.31843749999996 12.350312500000001 -85.31843749999996 12.350312500000001 -81.5625 11.6875 C-80.74346191406244 11.542963867187495 -79.92442382812499 11.398427734375005 -79.08056640625 11.24951171875 C-78.36562011718752 11.123344726562493 -77.65067382812504 10.997177734375 -76.9140625 10.8671875 C-76.10872070312496 10.725068359375001 -75.30337890625003 10.582949218750002 -74.4736328125 10.4365234375 C-73.65733398437499 10.292470703125005 -72.84103515624997 10.148417968749996 -72 10 C-71.18370117187499 9.855947265625005 -70.36740234374997 9.711894531249996 -69.5263671875 9.5634765625 C-68.72102539062496 9.421357421875001 -67.91568359375003 9.279238281250002 -67.0859375 9.1328125 C-66.37099121093752 9.006645507812493 -65.65604492187504 8.880478515625 -64.91943359375 8.75048828125 C-64.10039550781244 8.605952148437495 -63.281357421874986 8.461416015625005 -62.4375 8.3125 C-58.75593749999996 7.662812500000001 -58.75593749999996 7.662812500000001 -55 7 C-45.430000000000064 5.680000000000007 -35.860000000000014 4.359999999999999 -26 3 C-13.625 2.010000000000005 -13.625 2.010000000000005 -1 1 C-0.6699999999999591 0.6700000000000017 -0.34000000000003183 0.3400000000000034 0 0 Z " fill="#9CED29" transform="translate(950,62)"/>
<path d="M0 0 C0.3300000000000409 0 0.6599999999999682 0 1 0 C1 2.969999999999999 1 5.939999999999998 1 9 C0.009999999999990905 12.300000000000011 -0.9800000000000182 15.599999999999994 -2 19 C-2.1817578124999955 20.9606640625 -2.1817578124999955 20.9606640625 -2.3671875 22.9609375 C-2.489003906249991 24.260312499999998 -2.489003906249991 24.260312499999998 -2.61328125 25.5859375 C-2.742832031250032 26.9665234375 -2.742832031250032 26.9665234375 -2.875 28.375 C-2.953632812500018 29.22578125000001 -3.0322656250000364 30.076562499999994 -3.11328125 30.953125 C-3.2389648437499545 32.28730468750001 -3.2389648437499545 32.28730468750001 -3.3671875 33.6484375 C-3.576015624999968 35.74445312500001 -3.7848437499999363 37.840468750000014 -4 40 C-4.659999999999968 45.94 -5.319999999999936 51.879999999999995 -6 58 C-6 76.15 -6 94.30000000000001 -6 113 C-5.669999999999959 119.26999999999998 -5.340000000000032 125.54000000000002 -5 132 C-4.009999999999991 139.59000000000003 -3.019999999999982 147.18 -2 155 C-2 157.97000000000003 -2 160.94 -2 164 C-2.990000000000009 165.64999999999998 -3.980000000000018 167.3 -5 169 C-5.659999999999968 169 -6.319999999999936 169 -7 169 C-7.659999999999968 170.32 -8.32000000000005 171.64 -9 173 C-10.32000000000005 175.31 -11.639999999999986 177.62 -13 180 C-15.309999999999945 183.3 -17.620000000000005 186.60000000000002 -20 190 C-20.33000000000004 190.65999999999997 -20.659999999999968 191.32 -21 192 C-21.659999999999968 192 -22.32000000000005 192 -23 192 C-23.659999999999968 193.64999999999998 -24.32000000000005 195.3 -25 197 C-25.280854492187473 197.40613525390626 -25.561708984374945 197.8122705078125 -25.85107421875 198.230712890625 C-26.248266601562477 198.80555419921876 -26.645458984374955 199.38039550781252 -27.0546875 199.97265625 C-27.723106689453175 200.94138671874998 -27.723106689453175 200.94138671874998 -28.405029296875 201.9296875 C-28.89011962890629 202.63351562499997 -29.375209960937468 203.33734375 -29.875 204.0625 C-30.365891113281236 204.77535156249996 -30.856782226562473 205.48820312500004 -31.362548828125 206.22265625 C-31.865524902343736 206.95484375 -32.36850097656247 207.68703125000002 -32.88671875 208.44140625 C-33.658947753906205 209.56893310546877 -33.658947753906205 209.56893310546877 -34.44677734375 210.71923828125 C-35.215622558593736 211.84821533203126 -35.215622558593736 211.84821533203126 -36 213 C-36.743708496093745 214.10384033203127 -36.743708496093745 214.10384033203127 -37.50244140625 215.22998046875 C-37.98245605468753 215.94686035156246 -38.46247070312495 216.66374023437504 -38.95703125 217.40234375 C-39.416743164062495 218.09126708984377 -39.87645507812499 218.78019042968754 -40.35009765625 219.489990234375 C-41.01211181640622 220.48494506835937 -41.01211181640622 220.48494506835937 -41.6875 221.5 C-42.121108398437514 222.15234619140625 -42.55471679687503 222.8046923828125 -43.00146484375 223.476806640625 C-43.396723632812495 224.07227294921876 -43.79198242187499 224.6677392578125 -44.19921875 225.28125 C-44.79347656250002 226.17843749999997 -45.387734375000036 227.075625 -46 228 C-48.639999999999986 232.28999999999996 -51.27999999999997 236.58000000000004 -54 241 C-54.65999999999997 241 -55.32000000000005 241 -56 241 C-57.98000000000002 235.06 -59.960000000000036 229.12 -62 223 C-63.98000000000002 214.41999999999996 -65.96000000000004 205.84000000000003 -68 197 C-68.99000000000001 191.06 -68.99000000000001 191.06 -70 185 C-70.33000000000004 181.37 -70.65999999999997 177.74 -71 174 C-71 163.11 -71 152.22000000000003 -71 141 C-70.34000000000003 134.73000000000002 -69.67999999999995 128.46000000000004 -69 122 C-67.35000000000002 114.40999999999997 -65.70000000000005 106.82 -64 99 C-62.67999999999995 95.69999999999999 -61.360000000000014 92.4 -60 89 C-58.67999999999995 84.70999999999998 -57.360000000000014 80.42000000000002 -56 76 C-53.02999999999997 69.73000000000002 -50.059999999999945 63.46000000000001 -47 57 C-45.948125000000005 55.349999999999994 -44.89625000000001 53.69999999999999 -43.8125 52 C-43.468642578125014 51.46012451171876 -43.12478515625003 50.92024902343749 -42.7705078125 50.364013671875 C-42.48014648437504 49.90744384765625 -42.18978515624997 49.45087402343751 -41.890625 48.98046875 C-41.412060546874955 48.22709228515623 -41.412060546874955 48.22709228515623 -40.923828125 47.45849609375 C-40.61896484374995 46.97719238281249 -40.314101562500014 46.49588867187501 -40 46 C-39.47921874999997 45.17113281249999 -38.958437499999945 44.34226562500001 -38.421875 43.48828125 C-37.973281250000014 42.77027343750001 -37.52468750000003 42.05226562499999 -37.0625 41.3125 C-36.66160156249998 40.66925781250001 -36.260703124999964 40.026015625000014 -35.84765625 39.36328125 C-35.567929687500055 38.91339843750001 -35.288203124999995 38.463515625000014 -35 38 C-34.34000000000003 38 -33.67999999999995 38 -33 38 C-32.66999999999996 36.68000000000001 -32.34000000000003 35.360000000000014 -32 34 C-31.340000000000032 34 -30.67999999999995 34 -30 34 C-29.340000000000032 32.68000000000001 -28.67999999999995 31.360000000000014 -28 30 C-27.340000000000032 29.00999999999999 -26.67999999999995 28.02000000000001 -26 27 C-25.340000000000032 27 -24.67999999999995 27 -24 27 C-23.340000000000032 25.680000000000007 -22.67999999999995 24.360000000000014 -22 23 C-20.67999999999995 21.02000000000001 -19.360000000000014 19.039999999999992 -18 17 C-17.340000000000032 17 -16.67999999999995 17 -16 17 C-15.340000000000032 15.680000000000007 -14.67999999999995 14.360000000000014 -14 13 C-12.350000000000023 11.680000000000007 -10.700000000000045 10.360000000000014 -9 9 C-7.350000000000023 7.349999999999994 -5.7000000000000455 5.699999999999989 -4 4 C-2.6800000000000637 3.3400000000000034 -1.3600000000000136 2.680000000000007 0 2 C0 1.3400000000000034 0 0.6800000000000068 0 0 Z " fill="#2ACF48" transform="translate(667,156)"/>
<path d="M0 0 C105.60000000000002 0 211.20000000000005 0 320 0 C320 105.60000000000002 320 211.20000000000005 320 320 C214.39999999999998 320 108.79999999999995 320 0 320 C0 214.39999999999998 0 108.79999999999995 0 0 Z M3 3 C3 106.62 3 210.24 3 317 C106.62 317 210.24 317 317 317 C317 213.38 317 109.75999999999999 317 3 C213.38 3 109.75999999999999 3 3 3 Z " fill="#559DFF" transform="translate(529,529)"/>
<path d="M0 0 C105.60000000000002 0 211.20000000000005 0 320 0 C320 105.60000000000002 320 211.20000000000005 320 320 C214.39999999999998 320 108.79999999999995 320 0 320 C0 214.39999999999998 0 108.79999999999995 0 0 Z M3 3 C3 106.62 3 210.24 3 317 C106.62 317 210.24 317 317 317 C317 213.38 317 109.75999999999999 317 3 C213.38 3 109.75999999999999 3 3 3 Z " fill="#559DFF" transform="translate(174,529)"/>
<path d="M0 0 C105.60000000000002 0 211.20000000000005 0 320 0 C320 105.60000000000002 320 211.20000000000005 320 320 C214.39999999999998 320 108.79999999999995 320 0 320 C0 214.39999999999998 0 108.79999999999995 0 0 Z M3 3 C3 106.62 3 210.24 3 317 C106.62 317 210.24 317 317 317 C317 213.38 317 109.75999999999999 317 3 C213.38 3 109.75999999999999 3 3 3 Z " fill="#559DFF" transform="translate(174,174)"/>
<path d="M0 0 C39.92999999999995 0 79.86000000000001 0 121 0 C120.34000000000003 0.6599999999999966 119.68000000000006 1.3199999999999932 119 2 C118.00999999999999 2.3300000000000125 117.01999999999998 2.6599999999999966 116 3 C78.71000000000004 3 41.41999999999996 3 3 3 C3 106.62 3 210.24 3 317 C106.62 317 210.24 317 317 317 C317 282.02 317 247.03999999999996 317 211 C317.6600000000001 209.35000000000002 318.31999999999994 207.7 319 206 C319.3299999999999 206 319.6600000000001 206 320 206 C320 243.62 320 281.24 320 320 C214.39999999999998 320 108.79999999999995 320 0 320 C0 214.39999999999998 0 108.79999999999995 0 0 Z " fill="#559DFE" transform="translate(529,174)"/>
<path d="M0 0 C4.289999999999964 0 8.580000000000041 0 13 0 C53.59000000000003 2.4750000000000227 53.59000000000003 2.4750000000000227 95 5 C97.97000000000003 5.4950000000000045 97.97000000000003 5.4950000000000045 101 6 C114.20000000000005 6.660000000000025 127.39999999999998 7.319999999999993 141 8 C144.29999999999995 8.329999999999984 147.60000000000002 8.660000000000025 151 9 C151 9.660000000000025 151 10.319999999999993 151 11 C151.99 11.495000000000005 151.99 11.495000000000005 153 12 C149.37 12 145.74 12 142 12 C140.88168792724605 11.93149337768557 139.7633758544922 11.862986755371082 138.61117553710938 11.792404174804688 C137.85833282470708 11.74625473022462 137.10549011230466 11.700105285644554 136.329833984375 11.652557373046875 C135.0728771972656 11.575470428466815 135.0728771972656 11.575470428466815 133.79052734375 11.496826171875 C132.91522369384768 11.443123626708996 132.03992004394536 11.389421081542991 131.13809204101563 11.334091186523438 C130.2140557861328 11.277352294921855 129.29001953124998 11.220613403320328 128.33798217773438 11.162155151367188 C126.87510332107547 11.072245874404928 126.87510332107547 11.072245874404928 125.38267135620117 10.980520248413086 C124.88223800182345 10.949731214046494 124.38180464744573 10.918942179679846 123.86620664596558 10.88722014427185 C123.36121782779696 10.856117184162144 122.85622900962835 10.825014224052438 122.3359375 10.79296875 C121.57937575101846 10.746291650533692 121.57937575101846 10.746291650533692 120.80752992630005 10.698671579360962 C120.04654725313185 10.651672292947751 120.04654725313185 10.651672292947751 119.27019119262695 10.603723526000977 C118.75807008385664 10.572073143124555 118.24594897508621 10.540422760248191 117.71830904483795 10.507813274860382 C116.9429900556803 10.45987336188557 116.9429900556803 10.45987336188557 116.15200805664063 10.410964965820313 C115.36846893370148 10.362510261833677 115.36846893370148 10.362510261833677 114.56910073757172 10.313076674938202 C114.04169813275337 10.28045241415498 113.51429552793502 10.247828153371813 112.97091102600098 10.214215278625488 C112.43894088029856 10.18129874825479 111.90697073459626 10.148382217884091 111.35888028144836 10.114468216896057 C110.82150447607046 10.081205424070333 110.28412867069244 10.047942631244666 109.73046875 10.013671875 C109.18615353345876 9.979960616826986 108.64183831691741 9.946249358654029 108.08102869987488 9.911516547203064 C107.53233661890033 9.877530308961866 106.98364453792578 9.843544070720668 106.41832542419434 9.808527946472168 C105.86710655570027 9.774393655657775 105.31588768720621 9.740259364843382 104.74796521663666 9.705090701580048 C103.91825221955776 9.653723392188567 103.91825221955776 9.653723392188567 103.07177734375 9.601318359375 C102.51740513443951 9.567002204060543 101.96303292512891 9.532686048746086 101.39186155796051 9.497330009937286 C100.5608313709497 9.445931012928497 100.5608313709497 9.445931012928497 99.7130126953125 9.39349365234375 C99.16028182983405 9.359346084594733 98.60755096435548 9.325198516845717 98.03807067871094 9.290016174316406 C97.48925735473631 9.256185836791985 96.94044403076168 9.222355499267564 96.375 9.1875 C95.8342231750488 9.154304122924827 95.29344635009761 9.121108245849598 94.73628234863281 9.086906433105469 C94.20000717163089 9.054057998657242 93.66373199462896 9.02120956420896 93.1112060546875 8.98736572265625 C92.57742725610728 8.95469797253611 92.04364845752718 8.922030222415913 91.4936945438385 8.888372540473938 C90.96194233655933 8.855841926336268 90.43019012928005 8.823311312198655 89.88232421875 8.789794921875 C89.35136697530743 8.757299240827535 88.82040973186497 8.724803559780128 88.27336287498474 8.691323161125183 C87.74348084688188 8.658871618509295 87.21359881877902 8.626420075893407 86.66765975952148 8.592985153198242 C86.13895011425018 8.560575978755935 85.61024046897887 8.528166804313685 85.06550931930542 8.494775533676147 C84.2731798624992 8.446121410131468 84.2731798624992 8.446121410131468 83.46484375 8.396484375 C82.93622505664825 8.363929331302643 82.40760636329651 8.331374287605286 81.86296892166138 8.297832727432251 C81.07051814317697 8.248921562433225 81.07051814317697 8.248921562433225 80.26205825805664 8.19902229309082 C79.73444766759872 8.166397265195826 79.20683707714079 8.133772237300889 78.66323828697205 8.10015857219696 C78.13646498918536 8.067519146204006 77.60969169139867 8.034879720211052 77.06695556640625 8.001251220703125 C76.54140020608907 7.9686165153980255 76.01584484577177 7.935981810092926 75.47436356544495 7.902358174324036 C74.94969805479047 7.8697152078151476 74.425032544136 7.837072241306316 73.88446807861328 7.803440093994141 C73.3605740070343 7.770780014991772 72.83667993545532 7.738119935989403 72.2969102859497 7.704470157623291 C71.77353926658634 7.67179969310763 71.25016824722286 7.639129228591912 70.7109375 7.60546875 C70.18756648063663 7.572798285484339 69.66419546127315 7.540127820968621 69.1249647140503 7.506467342376709 C68.60229928016656 7.473777050971989 68.07963384628295 7.44108675956727 67.54113006591797 7.407405853271484 C67.0196417355537 7.374684759378454 66.49815340518956 7.341963665485366 65.96086239814758 7.3082510232925415 C65.18066428303723 7.259098926186539 65.18066428303723 7.259098926186539 64.38470458984375 7.208953857421875 C63.60694140553471 7.159689880013445 63.60694140553471 7.159689880013445 62.81346583366394 7.10943067073822 C62.296788198947866 7.07653679966927 61.780110564231904 7.04364292860032 61.24777603149414 7.00975227355957 C60.733086514472916 6.976810133457207 60.218396997451805 6.943867993354786 59.68811082839966 6.909927606582642 C59.17582917690277 6.876970832347865 58.663547525405875 6.844014058113089 58.1357421875 6.81005859375 C57.62647044658661 6.777156579494488 57.11719870567322 6.744254565238975 56.59249448776245 6.710355520248413 C56.08584272861481 6.677403938770283 55.57919096946716 6.6444523572921526 55.057186126708984 6.610502243041992 C54.5529231142998 6.577420724630372 54.04866010189062 6.5443392062186945 53.52911639213562 6.510255217552185 C53.02736809015278 6.477041283845892 52.52561978816982 6.4438273501396 52.0086669921875 6.40960693359375 C51.50957926988599 6.376273094415637 51.01049154758448 6.342939255237582 50.49627995491028 6.308595299720764 C49.99956186056136 6.275016220808027 49.502843766212436 6.24143714189529 48.99107360839844 6.206840515136719 C47.51049217224124 6.104454460144041 47.51049217224124 6.104454460144041 46 6 C44.52691123962404 5.893625907897956 44.52691123962404 5.893625907897956 43.02406311035156 5.785102844238281 C42.05419967651369 5.713114242553729 41.08433624267582 5.64112564086912 40.0850830078125 5.56695556640625 C39.131921367645305 5.494858388900752 38.178759727477996 5.422761211395255 37.19671440124512 5.348479270935059 C36.26458185195918 5.276825838088996 35.33244930267335 5.205172405242934 34.3720703125 5.13134765625 C33.01581385612485 5.0259861516952355 33.01581385612485 5.0259861516952355 31.632158279418945 4.918496131896973 C30.75263936996464 4.8493824291228975 29.873120460510222 4.780268726348879 28.966949462890625 4.7090606689453125 C27.685379009246844 4.60720427513121 27.685379009246844 4.60720427513121 26.377918243408203 4.503290176391602 C25.544220848083455 4.436462230682366 24.71052345275882 4.369634284973131 23.8515625 4.30078125 C23.02782512664794 4.234421596527113 22.20408775329588 4.1680619430542265 21.355388641357422 4.099691390991211 C20.1636547660828 4.003114614486719 20.1636547660828 4.003114614486719 18.947845458984375 3.9045867919921875 C17.824757938385005 3.813012056350715 17.824757938385005 3.813012056350715 16.67898178100586 3.7195873260498047 C15.97361408233644 3.6617060279846214 15.26824638366702 3.603824729919438 14.54150390625 3.544189453125 C13.534843654632596 3.460947675704972 13.534843654632596 3.460947675704972 12.50784683227539 3.3760242462158203 C11.607454929351775 3.3011720752716087 11.607454929351775 3.3011720752716087 10.688873291015625 3.2248077392578125 C9.801545104980505 3.1506211853027253 8.914216918945272 3.076434631347638 8 3 C6.019999999999982 3 4.039999999999964 3 2 3 C0.01999999999998181 5.970000000000027 0.01999999999998181 5.970000000000027 -2 9 C-4.309999999999945 11.970000000000027 -6.6200000000000045 14.939999999999998 -9 18 C-10.485000000000014 20.475000000000023 -10.485000000000014 20.475000000000023 -12 23 C-12.659999999999968 23.329999999999984 -13.32000000000005 23.660000000000025 -14 24 C-14 22.350000000000023 -14 20.69999999999999 -14 19 C-12.350000000000023 16.689999999999998 -10.700000000000045 14.379999999999995 -9 12 C-8.340000000000032 12 -7.67999999999995 12 -7 12 C-6.669999999999959 10.680000000000007 -6.340000000000032 9.360000000000014 -6 8 C-4.019999999999982 5.360000000000014 -2.0399999999999636 2.7200000000000273 0 0 Z " fill="#37C658" transform="translate(680,334)"/>
<path d="M0 0 C0.6599999999999682 0.3300000000000125 1.32000000000005 0.6599999999999966 2 1 C1.669999999999959 1.3300000000000125 1.3400000000000318 1.6599999999999966 1 2 C0.34000000000003183 5.6299999999999955 -0.32000000000005 9.259999999999991 -1 13 C-1.330000000000041 19.930000000000007 -1.6599999999999682 26.860000000000014 -2 34 C-1.669999999999959 34 -1.3400000000000318 34 -1 34 C-1.330000000000041 50.5 -1.6599999999999682 67 -2 84 C-1.669999999999959 92.91 -1.3400000000000318 101.82 -1 111 C-0.6699999999999591 113.31 -0.34000000000003183 115.62 0 118 C0 121.95999999999998 0 125.92000000000002 0 130 C0.6599999999999682 136.26999999999998 1.32000000000005 142.53999999999996 2 149 C2 150.64999999999998 2 152.3 2 154 C2.659999999999968 154 3.32000000000005 154 4 154 C4.990000000000009 152.01999999999998 4.990000000000009 152.01999999999998 6 150 C8.309999999999945 148.35000000000002 10.620000000000005 146.7 13 145 C12.009999999999991 146.98000000000002 12.009999999999991 146.98000000000002 11 149 C8.690000000000055 152.3 6.3799999999999955 155.60000000000002 4 159 C3.340000000000032 159 2.67999999999995 159 2 159 C2 159.65999999999997 2 160.32 2 161 C1.3400000000000318 161 0.67999999999995 161 0 161 C-0.3300000000000409 160.34000000000003 -0.6599999999999682 159.68 -1 159 C-2.32000000000005 142.82999999999998 -3.6399999999999864 126.65999999999997 -5 110 C-5 89.20999999999998 -5 68.41999999999999 -5 47 C-4.669999999999959 37.75999999999999 -4.340000000000032 28.52000000000001 -4 19 C-3.340000000000032 15.039999999999992 -2.67999999999995 11.080000000000013 -2 7 C-1.669999999999959 5.02000000000001 -1.3400000000000318 3.039999999999992 -1 1 C-0.6699999999999591 0.6699999999999875 -0.34000000000003183 0.3400000000000034 0 0 Z " fill="#2FB14D" transform="translate(675,150)"/>
<path d="M0 0 C1.32000000000005 0.3299999999999841 2.6399999999999864 0.660000000000025 4 1 C1.6900000000000546 4.300000000000011 -0.6200000000000045 7.600000000000023 -3 11 C-3.330000000000041 11.990000000000009 -3.659999999999968 12.980000000000018 -4 14 C-4.659999999999968 14 -5.32000000000005 14 -6 14 C-6.330000000000041 15.319999999999993 -6.659999999999968 16.639999999999986 -7 18 C-12.44500000000005 26.41500000000002 -12.44500000000005 26.41500000000002 -18 35 C-18.33000000000004 36.31999999999999 -18.659999999999968 37.639999999999986 -19 39 C-14.379999999999995 40.64999999999998 -9.759999999999991 42.30000000000001 -5 44 C0.6100000000000136 45.64999999999998 6.220000000000027 47.30000000000001 12 49 C18.92999999999995 50.64999999999998 25.860000000000014 52.30000000000001 33 54 C36.960000000000036 54.65999999999997 40.91999999999996 55.31999999999999 45 56 C53.90999999999997 56.65999999999997 62.819999999999936 57.31999999999999 72 58 C72.65999999999997 58.65999999999997 73.31999999999994 59.31999999999999 74 60 C69.04999999999995 60 64.10000000000002 60 59 60 C55.039999999999964 59.670000000000016 51.08000000000004 59.34000000000003 47 59 C45.514999999999986 58.504999999999995 45.514999999999986 58.504999999999995 44 58 C38.389999999999986 57.670000000000016 32.77999999999997 57.34000000000003 27 57 C17.100000000000023 54.360000000000014 7.2000000000000455 51.72000000000003 -3 49 C-10.259999999999991 46.360000000000014 -17.519999999999982 43.72000000000003 -25 41 C-24.00999999999999 38.02999999999997 -24.00999999999999 38.02999999999997 -23 35 C-21.67999999999995 33.35000000000002 -20.360000000000014 31.69999999999999 -19 30 C-17.67999999999995 27.689999999999998 -16.360000000000014 25.379999999999995 -15 23 C-11.700000000000045 18.05000000000001 -8.399999999999977 13.100000000000023 -5 8 C-3.3500000000000227 5.360000000000014 -1.7000000000000455 2.7200000000000273 0 0 Z " fill="#37C458" transform="translate(652,373)"/>
<path d="M0 0 C0.6599999999999682 0 1.32000000000005 0 2 0 C2 0.6599999999999966 2 1.3199999999999932 2 2 C1.009999999999991 2 0.01999999999998181 2 -1 2 C-1.6599999999999682 3.319999999999993 -2.32000000000005 4.640000000000001 -3 6 C-3.330000000000041 6.989999999999995 -3.659999999999968 7.980000000000004 -4 9 C-7.465000000000032 11.474999999999994 -7.465000000000032 11.474999999999994 -11 14 C-13.970000000000027 15.650000000000006 -16.940000000000055 17.299999999999997 -20 19 C-25.940000000000055 23.289999999999992 -31.879999999999995 27.58 -38 32 C-40.97000000000003 34.31 -43.940000000000055 36.620000000000005 -47 39 C-48.32000000000005 39 -49.639999999999986 39 -51 39 C-54.960000000000036 40.98000000000002 -54.960000000000036 40.98000000000002 -59 43 C-59.99000000000001 43 -60.98000000000002 43 -62 43 C-60.35000000000002 41.68000000000001 -58.700000000000045 40.360000000000014 -57 39 C-56.34000000000003 39 -55.67999999999995 39 -55 39 C-55 38.34 -55 37.68000000000001 -55 37 C-54.64083496093747 36.760556640625 -54.28166992187505 36.521113281249995 -53.91162109375 36.2744140625 C-53.412270507812536 35.941513671874986 -52.91291992187496 35.60861328125 -52.3984375 35.265625 C-51.85026367187504 34.90017578125 -51.30208984374997 34.5347265625 -50.7373046875 34.158203125 C-50.16399414062505 33.775996093749995 -49.590683593749986 33.39378906249999 -49 33 C-48.46536132812503 32.64357421874999 -47.930722656250055 32.28714843750001 -47.3798828125 31.919921875 C-46.85491210937505 31.569941406249995 -46.329941406249986 31.21996093749999 -45.7890625 30.859375 C-45.26699218750002 30.511328125000006 -44.744921875000045 30.16328125000001 -44.20703125 29.8046875 C-43.68496093750002 29.456640625000006 -43.162890625000045 29.108593749999997 -42.625 28.75 C-42.079726562500014 28.386484374999995 -41.53445312500003 28.022968750000004 -40.97265625 27.6484375 C-40.45832031249995 27.305546875000005 -39.943984375000014 26.962656249999995 -39.4140625 26.609375 C-38.61742187499999 26.078281250000003 -37.82078124999998 25.547187500000007 -37 25 C-36.66999999999996 24.340000000000003 -36.34000000000003 23.680000000000007 -36 23 C-33.690000000000055 21.680000000000007 -31.379999999999995 20.36 -29 19 C-23.059999999999945 15.039999999999992 -17.120000000000005 11.079999999999998 -11 7 C-10.340000000000032 7 -9.67999999999995 7 -9 7 C-9 6.340000000000003 -9 5.680000000000007 -9 5 C-6.029999999999973 3.3499999999999943 -3.0599999999999454 1.7000000000000028 0 0 Z M-49 35 C-48.66999999999996 35.66 -48.34000000000003 36.31999999999999 -48 37 C-47.66999999999996 36.34 -47.34000000000003 35.68000000000001 -47 35 C-47.65999999999997 35 -48.32000000000005 35 -49 35 Z " fill="#8CC534" transform="translate(938,98)"/>
</svg>
