<?xml version="1.0" encoding="UTF-8"?>
<!-- Generator: visioncortex VTracer 0.6.12 -->
<svg version="1.1" xmlns="http://www.w3.org/2000/svg" width="1040" height="400">
<path d="M0,0 L15,0 L30,3 L39,8 L46,15 L50,23 L52,30 L54,43 L55,47 L69,49 L128,49 L156,45 L171,45 L183,47 L192,51 L199,56 L206,64 L213,67 L221,67 L229,63 L236,56 L248,50 L256,48 L276,48 L298,53 L309,51 L321,48 L340,46 L371,46 L383,49 L391,54 L400,64 L407,67 L421,67 L432,64 L444,59 L454,57 L467,57 L479,60 L490,66 L497,72 L497,74 L500,75 L505,83 L507,89 L510,99 L510,164 L507,174 L501,183 L492,189 L483,192 L476,193 L458,193 L426,191 L404,191 L382,192 L353,192 L321,191 L211,191 L190,192 L176,192 L162,191 L69,191 L57,188 L47,182 L40,174 L37,169 L35,173 L34,171 L33,188 L31,188 L31,198 L29,198 L28,206 L23,216 L18,222 L8,228 L-1,231 L-14,233 L-134,233 L-151,230 L-163,224 L-168,219 L-173,213 L-177,203 L-177,198 L-179,198 L-179,187 L-181,187 L-181,67 L-179,67 L-179,56 L-177,56 L-176,48 L-171,38 L-166,32 L-156,26 L-147,23 L-134,21 L-68,20 L-56,17 L-32,7 L-14,2 Z " fill="#000000" transform="translate(278,89)"/>
<path d="M0,0 L13,0 L10,3 L15,1 L14,5 L8,15 L4,26 L2,36 L1,41 L-3,52 L-6,58 L-11,59 L-9,60 L-11,65 L-13,68 L-14,92 L-82,92 L-82,24 L-55,23 L-54,20 L-52,20 L-47,15 L-33,8 L-17,3 Z " fill="#0177CE" transform="translate(289,105)"/>
<path d="M0,0 L68,0 L68,68 L0,68 Z " fill="#0077D2" transform="translate(207,203)"/>
<path d="M0,0 L68,0 L68,68 L0,68 Z " fill="#0077D2" transform="translate(133,203)"/>
<path d="M0,0 L68,0 L68,68 L0,68 Z " fill="#0077D2" transform="translate(133,129)"/>
<path d="M0,0 L16,0 L30,54 L31,56 L47,0 L62,0 L69,24 L77,54 L78,55 L92,0 L107,0 L98,35 L86,79 L69,79 L54,26 L39,79 L22,79 L19,71 L0,2 Z " fill="#F5F7F9" transform="translate(326,153)"/>
<path d="M0,0 L20,0 L43,57 L63,7 L66,0 L86,0 L86,79 L71,79 L70,25 L55,62 L48,79 L37,79 L26,53 L14,24 L13,79 L0,79 Z " fill="#6EBD4D" transform="translate(534,153)"/>
<path d="M0,0 L6,0 L6,48 L73,48 L72,54 L6,54 L6,122 L70,122 L68,127 L60,134 L51,137 L44,138 L35,138 L14,135 L-8,135 L-29,138 L-38,138 L-52,135 L-60,129 L-64,124 L-64,122 L0,122 L0,54 L-65,54 L-66,48 L0,48 Z " fill="#000025" transform="translate(201,149)"/>
<path d="M0,0 L9,0 L16,3 L21,8 L24,15 L24,58 L10,58 L9,20 L6,14 L-1,12 L-8,15 L-11,19 L-12,22 L-13,58 L-27,58 L-27,2 L-13,2 L-12,6 L-4,1 Z " fill="#F6F8FA" transform="translate(495,174)"/>
<path d="M0,0 L8,0 L15,3 L20,8 L23,15 L23,58 L9,58 L8,19 L4,13 L-2,12 L-9,15 L-12,19 L-13,23 L-14,58 L-28,58 L-28,2 L-14,2 L-13,6 L-5,1 Z " fill="#6EBE4E" transform="translate(691,174)"/>
<path d="M0,0 L13,0 L10,3 L-6,13 L-15,20 L-20,24 L-25,27 L-31,32 L-31,26 L-30,24 L-32,24 L-33,34 L-46,47 L-49,52 L-51,52 L-51,24 L-53,24 L-53,55 L-63,70 L-65,70 L-67,62 L-67,45 L-64,35 L-58,26 L-57,23 L-55,23 L-54,20 L-52,20 L-47,15 L-33,8 L-17,3 Z " fill="#6EBF4F" transform="translate(289,105)"/>
<path d="M0,0 L6,0 L6,16 L20,16 L20,26 L6,26 L7,60 L8,62 L15,61 L18,61 L23,68 L19,72 L12,74 L5,74 L-3,71 L-7,66 L-8,64 L-8,26 L-18,26 L-18,16 L-8,16 L-8,2 Z " fill="#6EBE4E" transform="translate(739,160)"/>
<path d="M0,0 L1,3 L-3,8 L-9,21 L-12,35 L-13,40 L-17,51 L-20,57 L-44,56 L-61,54 L-57,48 L-45,35 L-28,35 L-42,33 L-38,28 L-33,24 L-28,19 L-17,11 L-3,2 Z " fill="#69BD51" transform="translate(303,106)"/>
<path d="M0,0 L14,0 L14,56 L0,56 Z " fill="#6FBF4E" transform="translate(635,176)"/>
<path d="M0,0 L14,0 L14,56 L0,56 Z " fill="#F7F9FB" transform="translate(440,176)"/>
<path d="M0,0 L19,0 L39,1 L41,2 L39,7 L34,12 L23,19 L19,20 L0,20 L-10,17 L-9,13 L-1,1 Z " fill="#45B659" transform="translate(239,163)"/>
<path d="M0,0 L1,3 L-3,8 L-9,21 L-12,35 L-28,35 L-42,33 L-38,28 L-33,24 L-28,19 L-17,11 L-3,2 Z " fill="#A0D74D" transform="translate(303,106)"/>
<path d="M0,0 L13,0 L10,3 L-6,13 L-15,20 L-20,24 L-25,27 L-31,32 L-30,21 L-27,6 L-12,2 Z " fill="#9FD64B" transform="translate(289,105)"/>
<path d="M0,0 L2,4 L12,40 L12,42 L5,40 L-8,40 L-12,41 L-4,11 L-1,1 Z " fill="#00002C" transform="translate(380,178)"/>
<path d="M0,0 L3,1 L3,4 L1,4 L1,35 L-9,50 L-11,50 L-13,42 L-13,25 L-10,15 L-4,6 L-3,3 L-1,3 Z " fill="#45B75C" transform="translate(235,125)"/>
<path d="M0,0 L10,0 L14,5 L14,11 L9,16 L1,16 L-4,11 L-4,5 Z " fill="#6EBE4E" transform="translate(637,150)"/>
<path d="M0,0 L10,0 L14,5 L14,11 L9,16 L1,16 L-4,11 L-4,5 Z " fill="#F6F8FA" transform="translate(442,150)"/>
<path d="M0,0 L5,1 L9,7 L11,13 L10,20 L3,21 L0,20 Z " fill="#00002D" transform="translate(547,193)"/>
<path d="M0,0 L1,0 L0,10 L-10,40 L-11,40 L-11,19 L-6,11 L-11,10 L-11,9 L-3,8 Z " fill="#03082A" transform="translate(286,154)"/>
<path d="M0,0 L1,0 L1,21 L-5,21 L-7,19 L-7,11 L-3,3 Z " fill="#00002D" transform="translate(604,193)"/>
<path d="M0,0 L2,4 L4,11 L4,15 L-5,17 L-1,1 Z " fill="#000000" transform="translate(380,178)"/>
<path d="M0,0 L11,0 L17,1 L33,2 L33,4 L16,4 L-3,3 Z " fill="#077DC5" transform="translate(242,160)"/>
<path d="M0,0 L2,0 L2,20 L-1,24 L-1,3 Z " fill="#1788A5" transform="translate(236,129)"/>
<path d="M0,0 L2,1 L-8,8 L-23,19 L-25,18 L-15,10 L-5,3 Z " fill="#101700" transform="translate(294,110)"/>
<path d="M0,0 L11,0 L17,1 L17,2 L9,3 L-3,3 Z " fill="#1386A6" transform="translate(242,160)"/>
<path d="M0,0 L3,1 L3,4 L-3,6 L-3,3 L-1,3 Z " fill="#47A34B" transform="translate(235,125)"/>
</svg>
