<svg id="Layer_1" data-name="Layer 1" xmlns="http://www.w3.org/2000/svg" viewBox="0 0 869 869"><defs><style>.cls-1{fill:#fff;}.cls-2{fill:#030712;}</style></defs><path class="cls-1" d="M678.63,869H190.37C85.23,869,0,818.44,0,678.63V190.37C0,85.23,85.23,0,190.37,0H678.63C783.77,0,869,98.23,869,203.37V691.63C869,796.77,783.77,869,678.63,869Z"/><path class="cls-2" d="M241.51,136.69H184a25.09,25.09,0,0,0-22.34,36.52L339.93,521.75a25.08,25.08,0,0,1,.19,22.46L262,703.79a25.09,25.09,0,0,0,22.53,36.13h79.09a46.73,46.73,0,0,0,42-26.18L477,567.88a77.72,77.72,0,0,0-.61-69.59L314.17,181.14A81.6,81.6,0,0,0,241.51,136.69Z"/><path class="cls-2" d="M557,169.36,491.73,302.65a74.31,74.31,0,0,0,.58,66.54l36,70.42c9.44,18.46,35.89,18.22,45-.39l134.1-273.91a25.16,25.16,0,0,0-22.59-36.23H621.55A71.89,71.89,0,0,0,557,169.36Z"/></svg>
