<svg xmlns="http://www.w3.org/2000/svg" width="1024" height="1024" viewBox="432 168 560 560" fill="none" role="img" aria-labelledby="winmint-icon-title">
  <title id="winmint-icon-title">WinMint icon</title>
  <path fill="#1170f2" d="M547.892 209.365c37.404-.083 78.772-.261 115.559.096 21.465 3.463 36.622 14.559 45.503 30.394 21.074 37.569-6.269 78.127-17.811 106.76-20.094 49.83-24.826 105.943-4.835 160.135 13.312 36.081 38.55 57.615 35.95 110.415-1.543 38.817-25.711 66.599-62.264 69.781H548.537c-30.409-2.037-54.275-27.254-56.058-57.436l.227-367.935c6.042-29.62 23.996-48.096 55.186-52.21"/>
  <path fill="#003984" d="M770.436 461.371c38.68 0 81.275-.268 119.33.137 24.881 4.869 42.733 23.201 44.406 50.873V630.25c-1.063 30.526-23.852 54.577-52.978 56.682l-110.072.007c-38.426-5.274-27.343-34.393-26.232-68.711.706-21.946-1.646-40.929-5.528-58.67-3.154-14.402-12.282-40.045-9.93-57.608 4.19-22.639 18.071-36.828 41.004-40.579"/>
  <path fill="#4cd08c" d="M920.394 209.797c2.216 1.166 4.369 3.655 4.842 5.829 1.536 29.373 2.428 59.816 2.078 91.027-4.341 88.983-60.337 145.274-160.506 126.51 14.553-66.543 48.699-114.488 96.898-147.331-.439.171.116-1.132-.419-.446-67.085 24.339-106.176 77.565-125.577 149.526-6.913-.164-11.776-2.942-13.093-8.744-18.372-150.932 55.852-215.171 195.777-216.371"/>
</svg>
