<svg xmlns="http://www.w3.org/2000/svg" fill="none" viewBox="300 67 3048 762" preserveAspectRatio="xMidYMid meet" role="img" aria-labelledby="winmint-title">
  <title id="winmint-title">WinMint</title>
  <defs>
    <style>
      :root{color-scheme:light dark}.win-start{stop-color:#003984}.win-mid{stop-color:#0b5ed7}.win-end{stop-color:#1170f2}.win-dot{fill:#003984}.mint-start{stop-color:#26bf7a}.mint-mid{stop-color:#4cd08c}.mint-end{stop-color:#1170f2}@media (prefers-color-scheme:dark){.win-start{stop-color:#fff}.win-mid{stop-color:#f3f7fb}.win-end{stop-color:#dce5f0}.win-dot{fill:#f3f7fb}.mint-start{stop-color:#4cd08c}.mint-mid{stop-color:#4cd08c}.mint-end{stop-color:#1170f2}}
    </style>
    <linearGradient id="winmint-word-win" x1="1515.86" x2="1515.86" y1="260" y2="635" gradientUnits="userSpaceOnUse">
      <stop offset="0" class="win-start"/>
      <stop offset=".55" class="win-mid"/>
      <stop offset="1" class="win-end"/>
    </linearGradient>
    <linearGradient id="winmint-word-mint" x1="2626.88" x2="2620.98" y1="250" y2="650" gradientUnits="userSpaceOnUse">
      <stop offset="0" class="mint-start"/>
      <stop offset=".55" class="mint-mid"/>
      <stop offset="1" class="mint-end"/>
    </linearGradient>
  </defs>
  <path fill="url(#winmint-word-win)" d="M1142.28 621.759 1032 275.46h74.74l70.55 238.081 70.56-237.6 74.73-.481 70.56 238.081 70.55-238.081h74.74l-110.27 346.299h-70.04l-72.9-233.752-72.91 233.752z"/>
  <path fill="url(#winmint-word-win)" d="M1580.62 621.759V362.035h71.08v259.724z"/>
  <path fill="url(#winmint-word-win)" d="M1927.6 621.759V499.112q0-8.899-1.05-22.606c-.7-9.299-2.87-18.598-6.53-27.896q-5.49-13.949-18.03-23.327c-8.19-6.253-19.86-9.379-35.02-9.379-6.1 0-12.63.881-19.6 2.645s-13.5 5.211-19.6 10.341c-6.09 4.97-11.15 12.345-15.15 22.125-3.84 9.779-5.75 22.765-5.75 38.958l-40.77-17.796q0-30.782 13.59-57.716t40.77-43.528c18.29-11.062 41.29-16.594 68.98-16.594 22.13 0 40.16 3.447 54.1 10.341 13.93 6.894 24.74 15.632 32.4 26.213 7.84 10.582 13.41 21.644 16.72 33.187 3.31 11.383 5.32 21.804 6.02 31.263.69 9.459 1.04 16.353 1.04 20.682v145.734zm-192.85 0V362.035h63.23v86.094h8.89v173.63z"/>
  <path class="win-dot" d="M1659.22 290.29c0 22.136-19.5 40.081-43.55 40.081-24.06 0-43.56-17.945-43.56-40.081s19.5-40.081 43.56-40.081c24.05 0 43.55 17.945 43.55 40.081"/>
  <path fill="url(#winmint-word-mint)" d="M2066.79 621.759V275.46h63.76l124.39 229.904 124.39-229.904h63.76v346.299h-66.38V414.942l-109.23 206.817h-25.08l-109.23-206.817v206.817z"/>
  <path fill="url(#winmint-word-mint)" d="M2516.44 621.759V362.035h71.08v259.724z"/>
  <path fill="url(#winmint-word-mint)" d="M2852.96 621.759V499.112c0-5.932-.35-13.468-1.04-22.606q-1.05-13.949-6.54-27.896-5.475-13.949-18.03-23.327c-8.18-6.253-19.86-9.379-35.01-9.379-6.1 0-12.63.882-19.6 2.645-6.97 1.764-13.5 5.211-19.6 10.341-6.1 4.97-11.15 12.345-15.16 22.125-3.83 9.779-5.75 22.766-5.75 38.958l-40.76-17.796q0-30.782 13.59-57.716c9.06-17.956 22.64-32.466 40.76-43.528 18.29-11.062 41.29-16.593 68.99-16.593 22.12 0 40.16 3.446 54.09 10.34 13.94 6.894 24.74 15.632 32.41 26.213 7.84 10.582 13.41 21.644 16.72 33.187 3.31 11.383 5.31 21.804 6.01 31.263q1.05 14.188 1.05 20.682v145.734zm-192.85 0V362.035h63.24v86.094h8.88v173.63z"/>
  <path fill="url(#winmint-word-mint)" d="M3157 621.759c-19.51 3.367-38.67 4.81-57.49 4.329-18.64-.321-35.36-3.287-50.17-8.898q-21.96-8.658-33.45-27.656-10.455-17.796-10.98-36.073c-.34-12.345-.52-26.293-.52-41.844V289.889h71.08v217.88c0 10.1.09 19.239.26 27.415q.525 12.025 5.49 19.239c6.27 9.139 16.29 14.109 30.05 14.91s29.01.161 45.73-1.924zm-200.69-209.222v-50.502H3157v50.502z"/>
  <path fill="#4cd08c" d="M2594.68 288.081c0 22.136-19.5 40.081-43.55 40.081-24.06 0-43.56-17.945-43.56-40.081S2527.07 248 2551.13 248c24.05 0 43.55 17.945 43.55 40.081"/>
  <path fill="#1170f2" d="M547.892 209.365c37.404-.083 78.772-.261 115.559.096 21.465 3.463 36.622 14.559 45.503 30.394 21.074 37.569-6.269 78.127-17.811 106.76-20.094 49.83-24.826 105.943-4.835 160.135 13.312 36.081 38.55 57.615 35.95 110.415-1.543 38.817-25.711 66.599-62.264 69.781H548.537c-30.409-2.037-54.275-27.254-56.058-57.436l.227-367.935c6.042-29.62 23.996-48.096 55.186-52.21"/>
  <path fill="#003984" d="M770.436 461.371c38.68 0 81.275-.268 119.33.137 24.881 4.869 42.733 23.201 44.406 50.873V630.25c-1.063 30.526-23.852 54.577-52.978 56.682l-110.072.007c-38.426-5.274-27.343-34.393-26.232-68.711.706-21.946-1.646-40.929-5.528-58.67-3.154-14.402-12.282-40.045-9.93-57.608 4.19-22.639 18.071-36.828 41.004-40.579"/>
  <path fill="#4cd08c" d="M920.394 209.797c2.216 1.166 4.369 3.655 4.842 5.829 1.536 29.373 2.428 59.816 2.078 91.027-4.341 88.983-60.337 145.274-160.506 126.51 14.553-66.543 48.699-114.488 96.898-147.331-.439.171.116-1.132-.419-.446-67.085 24.339-106.176 77.565-125.577 149.526-6.913-.164-11.776-2.942-13.093-8.744-18.372-150.932 55.852-215.171 195.777-216.371"/>
</svg>
